<?xml version="1.0" encoding="UTF-8" standalone="no"?>
<!DOCTYPE svg PUBLIC "-//W3C//DTD SVG 20010904//EN"
              "http://www.w3.org/TR/2001/REC-SVG-20010904/DTD/svg10.dtd">

<svg xmlns="http://www.w3.org/2000/svg"
     width="0.75in" height="0.75in"
     viewBox="0 0 225 225">
  <path id="Selection"
        fill="grey" stroke="none" stroke-width="0"
        d="M 0.00,80.00
           C 0.00,80.00 54.00,80.00 54.00,80.00
             56.43,80.00 59.67,80.20 61.82,78.98
             64.75,77.30 66.71,72.89 68.30,70.00
             68.30,70.00 77.35,55.00 77.35,55.00
             87.71,39.47 99.77,29.80 119.00,30.00
             136.62,30.19 149.23,45.31 157.95,59.00
             157.95,59.00 165.69,72.00 165.69,72.00
             166.95,74.30 168.58,78.27 170.93,79.85
             172.63,80.46 177.85,80.01 180.00,79.85
             180.00,79.85 225.00,79.85 225.00,79.85
             225.00,79.85 225.00,94.19 225.00,94.19
             225.00,94.19 186.00,94.19 186.00,94.19
             186.00,94.19 179.00,97.00 179.00,97.00
             179.00,97.00 190.25,121.00 190.25,121.00
             192.31,125.15 193.68,129.07 198.04,131.28
             203.37,133.97 217.52,133.00 224.00,133.00
             224.00,133.00 224.00,147.00 224.00,147.00
             224.00,147.00 185.00,147.00 185.00,147.00
             185.00,147.00 164.00,148.00 164.00,148.00
             150.83,148.16 128.79,151.87 116.00,155.42
             84.21,164.26 70.63,176.35 46.00,183.98
             31.14,188.58 15.45,189.00 0.00,189.00
             0.00,189.00 0.00,174.00 0.00,174.00
             11.71,174.00 20.50,174.73 32.00,171.28
             32.00,171.28 85.00,146.20 85.00,146.20
             110.29,136.18 135.02,131.76 162.00,129.91
             162.00,129.91 173.00,129.00 173.00,129.00
             173.00,129.00 155.75,93.00 155.75,93.00
             150.43,82.36 140.16,64.23 131.96,56.04
             127.51,51.59 121.64,47.35 115.00,48.34
             107.75,49.43 100.94,55.55 96.46,61.00
             87.04,72.47 81.34,86.35 73.80,99.00
             63.08,116.98 50.11,135.24 29.00,141.56
             18.35,144.75 10.84,144.00 0.00,144.00
             0.00,144.00 0.00,130.00 0.00,130.00
             19.55,130.00 28.76,127.22 42.13,111.99
             44.56,109.22 52.98,100.34 49.55,96.70
             47.28,94.28 42.10,94.04 39.00,94.00
             39.00,94.00 0.00,94.00 0.00,94.00
             0.00,94.00 0.00,80.00 0.00,80.00 Z" />
</svg>
