<?xml version="1.0" encoding="UTF-8" standalone="no"?>
<!DOCTYPE svg PUBLIC "-//W3C//DTD SVG 20010904//EN"
              "http://www.w3.org/TR/2001/REC-SVG-20010904/DTD/svg10.dtd">

<svg xmlns="http://www.w3.org/2000/svg"
     width="3.88in" height="3.82in"
     viewBox="0 0 388 382">
  <path id="Selection"
        fill="blue" stroke="none" stroke-width="0"
        d="M 50.00,113.00
           C 42.87,113.00 23.75,114.99 19.34,109.32
             16.81,106.07 17.01,100.92 17.00,97.00
             17.00,97.00 17.00,29.00 17.00,29.00
             17.02,15.69 22.60,13.02 35.00,13.00
             35.00,13.00 109.00,13.00 109.00,13.00
             109.00,13.00 312.00,13.00 312.00,13.00
             312.00,13.00 348.00,13.00 348.00,13.00
             352.68,13.00 361.67,12.49 365.70,14.32
             372.33,17.32 372.99,22.58 373.00,29.00
             373.00,29.00 373.00,99.00 373.00,99.00
             372.88,109.11 370.53,112.87 360.00,113.00
             360.00,113.00 340.00,113.00 340.00,113.00
             340.00,113.00 340.00,141.00 340.00,141.00
             346.03,141.00 361.87,140.10 366.54,142.73
             371.62,145.59 372.92,149.53 373.00,155.00
             373.00,155.00 373.00,197.00 373.00,197.00
             373.00,197.00 373.00,227.00 373.00,227.00
             372.95,230.80 372.85,235.15 370.03,238.05
             366.82,241.34 362.22,240.99 358.00,241.00
             358.00,241.00 340.00,241.00 340.00,241.00
             340.00,241.00 340.00,269.00 340.00,269.00
             346.03,269.00 361.87,268.10 366.54,270.73
             371.62,273.59 372.92,277.53 373.00,283.00
             373.00,283.00 373.00,325.00 373.00,325.00
             373.00,325.00 373.00,355.00 373.00,355.00
             372.95,358.80 372.85,363.15 370.03,366.05
             366.82,369.34 362.22,368.99 358.00,369.00
             358.00,369.00 281.00,369.00 281.00,369.00
             281.00,369.00 78.00,369.00 78.00,369.00
             78.00,369.00 37.00,369.00 37.00,369.00
             32.24,369.00 24.44,369.81 20.68,366.71
             16.70,363.42 17.01,357.67 17.00,353.00
             17.00,353.00 17.00,295.00 17.00,295.00
             17.00,287.14 14.99,277.34 21.90,271.82
             27.18,267.59 42.99,269.00 50.00,269.00
             50.00,269.00 50.00,241.00 50.00,241.00
             42.87,241.00 23.75,242.99 19.34,237.32
             16.81,234.07 17.01,228.92 17.00,225.00
             17.00,225.00 17.00,167.00 17.00,167.00
             17.00,159.14 14.99,149.34 21.90,143.82
             27.18,139.59 42.99,141.00 50.00,141.00
             50.00,141.00 50.00,113.00 50.00,113.00 Z
           M 362.00,24.00
           C 362.00,24.00 28.00,24.00 28.00,24.00
             28.00,24.00 28.00,102.00 28.00,102.00
             28.00,102.00 362.00,102.00 362.00,102.00
             362.00,102.00 362.00,24.00 362.00,24.00 Z
           M 54.45,46.93
           C 63.42,45.81 61.01,63.36 61.00,69.00
             60.99,72.34 61.42,77.82 57.67,79.41
             51.40,82.08 50.02,74.08 50.00,70.00
             49.96,62.76 47.99,51.63 54.45,46.93 Z
           M 77.38,46.85
           C 86.28,46.46 84.03,64.21 84.00,70.00
             83.98,73.75 84.05,78.00 79.72,79.47
             73.50,81.57 73.03,74.02 73.00,70.00
             72.96,63.33 70.82,50.52 77.38,46.85 Z
           M 99.38,46.84
           C 108.62,46.16 106.11,64.86 106.00,71.00
             105.93,74.82 104.68,81.02 99.26,79.47
             94.65,78.15 95.01,72.76 95.00,69.00
             94.99,62.42 92.87,50.50 99.38,46.84 Z
           M 121.38,46.84
           C 130.62,46.16 128.11,64.86 128.00,71.00
             127.93,74.82 126.68,81.02 121.26,79.47
             116.65,78.15 117.01,72.76 117.00,69.00
             116.99,62.42 114.87,50.50 121.38,46.84 Z
           M 266.13,58.57
           C 271.47,57.55 282.09,58.00 288.00,58.00
             288.00,58.00 327.00,58.00 327.00,58.00
             329.88,58.00 334.01,57.79 336.53,59.27
             340.31,61.50 340.55,65.95 336.53,68.12
             334.53,69.20 331.27,69.00 329.00,69.00
             329.00,69.00 272.00,69.00 272.00,69.00
             269.90,69.00 266.32,69.24 264.57,68.01
             260.66,65.25 262.23,60.50 266.13,58.57 Z
           M 328.00,113.00
           C 328.00,113.00 61.00,113.00 61.00,113.00
             61.00,113.00 61.00,141.00 61.00,141.00
             61.00,141.00 328.00,141.00 328.00,141.00
             328.00,141.00 328.00,113.00 328.00,113.00 Z
           M 362.00,152.00
           C 362.00,152.00 28.00,152.00 28.00,152.00
             28.00,152.00 28.00,230.00 28.00,230.00
             28.00,230.00 362.00,230.00 362.00,230.00
             362.00,230.00 362.00,152.00 362.00,152.00 Z
           M 54.45,174.93
           C 63.42,173.81 61.01,191.36 61.00,197.00
             60.99,200.34 61.42,205.82 57.67,207.41
             51.40,210.08 50.02,202.08 50.00,198.00
             49.96,190.76 47.99,179.63 54.45,174.93 Z
           M 77.38,174.85
           C 86.28,174.46 84.03,192.21 84.00,198.00
             83.98,201.75 84.05,206.00 79.72,207.47
             73.50,209.57 73.03,202.02 73.00,198.00
             72.96,191.33 70.82,178.52 77.38,174.85 Z
           M 99.38,174.84
           C 108.62,174.16 106.11,192.86 106.00,199.00
             105.93,202.82 104.68,209.02 99.26,207.47
             94.65,206.15 95.01,200.76 95.00,197.00
             94.99,190.42 92.87,178.50 99.38,174.84 Z
           M 121.38,174.84
           C 130.62,174.16 128.11,192.86 128.00,199.00
             127.93,202.82 126.68,209.02 121.26,207.47
             116.65,206.15 117.01,200.76 117.00,197.00
             116.99,190.42 114.87,178.50 121.38,174.84 Z
           M 266.13,186.57
           C 271.47,185.55 282.09,186.00 288.00,186.00
             288.00,186.00 327.00,186.00 327.00,186.00
             329.88,186.00 334.01,185.79 336.53,187.27
             340.31,189.50 340.55,193.95 336.53,196.12
             334.53,197.20 331.27,197.00 329.00,197.00
             329.00,197.00 272.00,197.00 272.00,197.00
             269.90,197.00 266.32,197.24 264.57,196.01
             260.66,193.25 262.23,188.50 266.13,186.57 Z
           M 328.00,241.00
           C 328.00,241.00 61.00,241.00 61.00,241.00
             61.00,241.00 61.00,269.00 61.00,269.00
             61.00,269.00 328.00,269.00 328.00,269.00
             328.00,269.00 328.00,241.00 328.00,241.00 Z
           M 362.00,280.00
           C 362.00,280.00 28.00,280.00 28.00,280.00
             28.00,280.00 28.00,358.00 28.00,358.00
             28.00,358.00 362.00,358.00 362.00,358.00
             362.00,358.00 362.00,280.00 362.00,280.00 Z
           M 54.45,302.93
           C 63.42,301.81 61.01,319.36 61.00,325.00
             60.99,328.34 61.42,333.82 57.67,335.41
             51.40,338.08 50.02,330.08 50.00,326.00
             49.96,318.76 47.99,307.63 54.45,302.93 Z
           M 77.38,302.85
           C 86.28,302.46 84.03,320.21 84.00,326.00
             83.98,329.75 84.05,334.00 79.72,335.47
             73.50,337.57 73.03,330.02 73.00,326.00
             72.96,319.33 70.82,306.52 77.38,302.85 Z
           M 99.38,302.84
           C 108.62,302.16 106.11,320.86 106.00,327.00
             105.93,330.82 104.68,337.02 99.26,335.47
             94.65,334.15 95.01,328.76 95.00,325.00
             94.99,318.42 92.87,306.50 99.38,302.84 Z
           M 121.38,302.84
           C 130.62,302.16 128.11,320.86 128.00,327.00
             127.93,330.82 126.68,337.02 121.26,335.47
             116.65,334.15 117.01,328.76 117.00,325.00
             116.99,318.42 114.87,306.50 121.38,302.84 Z
           M 266.47,313.73
           C 271.32,312.42 281.54,313.00 287.00,313.00
             287.00,313.00 327.00,313.00 327.00,313.00
             329.73,313.00 332.85,312.77 335.30,314.10
             339.37,316.32 341.56,321.41 336.54,324.12
             334.53,325.20 331.27,325.00 329.00,325.00
             329.00,325.00 272.00,325.00 272.00,325.00
             269.90,325.00 266.32,325.24 264.57,324.01
             260.24,320.95 262.81,315.92 266.47,313.73 Z" />
</svg>
