<?xml version="1.0" encoding="UTF-8" standalone="no"?>
<!DOCTYPE svg PUBLIC "-//W3C//DTD SVG 20010904//EN"
              "http://www.w3.org/TR/2001/REC-SVG-20010904/DTD/svg10.dtd">

<svg xmlns="http://www.w3.org/2000/svg"
     width="3.58in" height="3.58in"
     viewBox="0 0 358 358">
  <path id="Selection"
        fill="red" stroke="none" stroke-width="1"
        d="M 239.00,215.00
           C 242.57,217.56 249.99,223.89 251.39,228.00
             252.76,232.04 250.46,235.95 245.98,235.75
             241.98,235.57 238.66,231.65 236.00,229.00
             236.00,229.00 219.00,212.00 219.00,212.00
             219.00,212.00 148.00,141.00 148.00,141.00
             148.00,141.00 128.02,121.00 128.02,121.00
             125.54,118.45 121.86,114.98 122.54,111.04
             122.82,109.40 123.79,108.02 125.23,107.18
             130.99,103.78 136.21,111.75 140.00,114.89
             141.52,116.14 142.88,117.36 145.00,116.80
             147.49,116.15 155.71,107.29 158.00,105.00
             168.11,94.89 177.51,82.65 192.00,79.13
             201.68,76.78 210.89,79.28 219.00,84.90
             225.30,89.27 227.59,94.58 232.00,92.37
             233.70,91.52 238.40,86.60 240.00,85.00
             240.00,85.00 254.00,71.00 254.00,71.00
             254.00,71.00 302.00,23.00 302.00,23.00
             302.00,23.00 317.00,8.00 317.00,8.00
             318.78,6.22 322.76,1.94 325.00,1.17
             328.74,-0.12 334.62,5.16 333.66,9.00
             333.18,10.94 330.40,13.57 329.00,15.00
             329.00,15.00 317.00,27.00 317.00,27.00
             317.00,27.00 239.00,105.00 239.00,105.00
             239.00,105.00 254.00,116.96 254.00,116.96
             254.00,116.96 262.00,111.00 262.00,111.00
             262.00,111.00 280.00,93.00 280.00,93.00
             280.00,93.00 325.00,48.00 325.00,48.00
             325.00,48.00 351.00,23.00 351.00,23.00
             353.39,25.42 358.16,29.17 356.83,33.00
             355.94,35.59 348.31,42.69 346.00,45.00
             346.00,45.00 319.00,72.00 319.00,72.00
             319.00,72.00 280.00,111.00 280.00,111.00
             277.38,113.62 265.89,124.38 265.20,127.00
             264.23,130.65 270.56,135.11 273.37,139.00
             277.18,144.28 280.24,154.48 279.67,161.00
             279.31,165.20 277.63,172.29 275.67,176.00
             272.36,182.29 266.96,187.04 262.00,192.00
             262.00,192.00 239.00,215.00 239.00,215.00 Z
           M 199.00,90.58
           C 187.60,91.39 183.69,96.32 176.00,104.00
             176.00,104.00 164.00,116.00 164.00,116.00
             161.40,118.60 153.37,125.12 154.34,129.00
             155.03,131.76 164.50,140.50 167.00,143.00
             167.00,143.00 200.00,176.00 200.00,176.00
             200.00,176.00 221.00,197.00 221.00,197.00
             222.96,198.95 227.16,203.80 230.00,203.80
             232.49,203.80 235.33,200.63 237.00,199.00
             237.00,199.00 252.00,184.00 252.00,184.00
             256.15,179.85 262.60,174.10 265.16,169.00
             274.19,151.01 255.10,137.10 244.00,126.00
             244.00,126.00 234.00,116.00 234.00,116.00
             224.29,106.29 213.36,91.60 199.00,90.58 Z
           M 8.00,335.00
           C 6.05,333.04 1.20,328.84 1.20,326.00
             1.20,322.84 8.67,316.33 11.00,314.00
             11.00,314.00 39.00,286.00 39.00,286.00
             39.00,286.00 76.00,249.00 76.00,249.00
             78.63,246.37 91.32,234.11 92.37,232.00
             94.48,227.80 89.29,224.89 85.79,220.00
             81.48,213.99 78.66,204.40 79.09,197.00
             80.13,179.16 92.29,170.71 104.00,159.00
             106.42,156.58 116.13,147.57 116.80,145.00
             118.11,140.03 107.75,135.58 106.76,129.00
             106.09,124.57 109.75,121.57 114.00,122.47
             117.89,123.30 122.22,128.22 125.00,131.00
             125.00,131.00 145.00,151.00 145.00,151.00
             145.00,151.00 221.00,227.00 221.00,227.00
             224.31,230.31 234.05,239.19 235.40,243.00
             237.05,247.67 234.44,252.69 229.00,251.53
             224.57,250.58 217.37,242.37 214.00,239.00
             209.91,244.71 204.01,249.99 199.00,255.00
             188.07,265.93 174.48,282.12 157.00,279.70
             149.76,278.70 142.85,275.74 137.00,271.39
             134.40,269.46 130.28,264.33 127.00,265.20
             124.35,265.89 112.72,278.28 110.00,281.00
             110.00,281.00 70.00,321.00 70.00,321.00
             70.00,321.00 40.00,351.00 40.00,351.00
             36.91,354.06 33.59,358.82 29.02,355.63
             27.96,354.89 26.31,353.16 25.74,352.00
             23.94,348.30 27.66,345.40 30.00,343.00
             30.00,343.00 48.00,325.00 48.00,325.00
             48.00,325.00 100.00,273.00 100.00,273.00
             100.00,273.00 112.99,260.00 112.99,260.00
             114.41,258.52 116.96,256.20 116.96,254.00
             116.96,250.82 106.60,241.60 104.00,239.00
             104.00,239.00 86.00,258.00 86.00,258.00
             86.00,258.00 56.00,288.00 56.00,288.00
             56.00,288.00 26.00,318.00 26.00,318.00
             26.00,318.00 8.00,335.00 8.00,335.00 Z
           M 128.00,154.20
           C 122.23,155.99 115.44,164.56 111.00,169.00
             106.26,173.74 97.73,181.60 94.48,187.00
             85.02,202.68 95.47,212.47 106.00,223.00
             106.00,223.00 125.00,242.00 125.00,242.00
             125.00,242.00 137.00,254.00 137.00,254.00
             144.05,261.05 150.02,268.10 161.00,267.22
             164.31,266.95 168.18,265.76 171.00,264.01
             175.38,261.29 190.32,245.68 195.00,241.00
             197.48,238.52 204.60,232.74 203.66,229.00
             203.13,226.88 199.58,223.59 198.00,222.00
             198.00,222.00 186.00,210.00 186.00,210.00
             186.00,210.00 146.00,170.00 146.00,170.00
             141.54,165.54 133.63,155.94 128.00,154.20 Z" />
</svg>
