<?xml version="1.0" encoding="UTF-8" standalone="no"?>
<!DOCTYPE svg PUBLIC "-//W3C//DTD SVG 20010904//EN"
              "http://www.w3.org/TR/2001/REC-SVG-20010904/DTD/svg10.dtd">

<svg xmlns="http://www.w3.org/2000/svg"
     width="2.01in" height="1.52in"
     viewBox="0 0 201 152">
  <path id="Selection"
        fill="red" stroke="none" stroke-width="0"
        d="M 48.00,58.00
           C 45.70,58.00 41.23,58.20 39.23,57.26
             35.29,55.43 35.19,47.47 37.17,44.23
             40.48,38.81 46.35,43.47 52.79,36.87
             56.29,33.28 59.11,25.64 61.93,21.00
             68.53,10.12 78.65,0.58 92.00,0.04
             102.15,-0.37 111.07,4.84 110.92,16.00
             110.81,24.50 101.80,30.29 94.04,26.99
             90.16,25.35 88.87,22.48 87.00,19.00
             87.00,19.00 78.00,41.00 78.00,41.00
             88.69,41.87 86.54,51.74 82.58,55.57
             79.69,58.37 75.71,57.99 72.00,58.00
             71.41,64.52 67.36,77.19 65.42,84.00
             59.87,103.48 54.05,124.34 40.54,139.96
             32.55,149.20 13.49,157.73 3.56,146.67
             -4.11,138.14 1.77,122.65 14.00,124.62
             19.15,125.45 21.44,128.94 24.00,133.00
             24.00,133.00 28.54,124.00 28.54,124.00
             28.54,124.00 48.00,58.00 48.00,58.00 Z
           M 68.00,47.00
           C 72.68,36.93 76.46,19.18 85.04,12.42
             85.95,11.69 86.94,11.06 88.00,10.58
             88.00,10.58 90.00,9.91 90.00,9.91
             98.45,8.71 93.20,16.38 95.83,19.40
             97.65,21.49 102.46,21.11 103.55,16.89
             105.23,10.41 96.26,2.11 83.00,9.35
             74.78,13.84 69.72,20.97 65.31,29.00
             62.75,33.65 60.82,39.13 56.90,42.79
             48.51,50.62 44.07,43.00 42.00,52.00
             42.00,52.00 56.00,52.00 56.00,52.00
             56.00,52.00 45.42,91.00 45.42,91.00
             45.42,91.00 34.13,128.00 34.13,128.00
             29.86,137.41 24.30,141.90 14.00,142.00
             14.89,139.13 17.78,130.13 11.04,131.88
             6.22,133.14 6.44,139.49 9.43,142.43
             12.69,145.63 17.95,145.23 22.00,144.06
             32.89,140.93 39.94,130.56 44.75,121.00
             51.44,107.72 55.96,93.34 59.85,79.00
             59.85,79.00 65.36,59.00 65.36,59.00
             66.16,56.72 67.04,54.34 69.22,53.02
             73.70,50.32 76.67,54.29 79.00,47.00
             79.00,47.00 68.00,47.00 68.00,47.00 Z
           M 123.00,27.67
           C 128.82,27.54 133.70,32.08 130.81,37.96
             130.81,37.96 114.72,56.00 114.72,56.00
             103.68,71.77 96.78,92.75 97.00,112.00
             97.06,116.99 97.81,121.25 99.36,126.00
             100.20,128.60 102.47,133.56 102.45,136.00
             102.42,139.33 100.21,141.94 96.98,142.67
             90.22,144.20 87.59,138.04 85.43,133.00
             79.93,120.16 76.84,110.11 77.00,96.00
             77.26,74.07 88.72,56.65 104.04,41.92
             109.11,37.04 116.33,29.86 123.00,27.67 Z
           M 181.01,27.83
           C 188.56,27.03 189.99,32.20 192.75,38.00
             198.81,50.75 201.07,60.98 201.00,75.00
             200.90,96.90 188.13,117.05 172.00,131.00
             168.62,133.92 160.81,141.23 157.00,142.44
             150.74,144.43 145.07,139.61 147.60,133.09
             147.60,133.09 163.48,115.00 163.48,115.00
             174.59,98.56 181.23,78.85 181.01,59.00
             180.80,42.19 170.17,33.52 181.01,27.83 Z
           M 125.00,34.00
           C 125.00,34.00 124.00,34.00 124.00,34.00
             124.00,34.00 125.00,35.00 125.00,35.00
             125.00,35.00 125.00,34.00 125.00,34.00 Z
           M 183.00,34.00
           C 183.00,34.00 182.00,34.00 182.00,34.00
             182.00,34.00 183.00,35.00 183.00,35.00
             183.00,35.00 183.00,34.00 183.00,34.00 Z
           M 124.00,35.00
           C 124.00,35.00 123.00,35.00 123.00,35.00
             123.00,35.00 124.00,36.00 124.00,36.00
             124.00,36.00 124.00,35.00 124.00,35.00 Z
           M 185.00,37.00
           C 185.00,37.00 188.00,59.00 188.00,59.00
             188.19,75.66 182.67,95.38 174.69,110.00
             174.69,110.00 161.00,130.00 161.00,130.00
             167.40,127.00 172.58,121.30 177.13,116.00
             186.57,104.99 195.88,86.97 194.82,72.00
             193.88,58.77 190.10,49.02 185.00,37.00 Z
           M 120.00,38.00
           C 120.00,38.00 119.00,38.00 119.00,38.00
             119.00,38.00 120.00,39.00 120.00,39.00
             120.00,39.00 120.00,38.00 120.00,38.00 Z
           M 119.00,39.00
           C 119.00,39.00 118.00,39.00 118.00,39.00
             118.00,39.00 119.00,40.00 119.00,40.00
             119.00,40.00 119.00,39.00 119.00,39.00 Z
           M 118.00,40.00
           C 118.00,40.00 117.00,40.00 117.00,40.00
             117.00,40.00 118.00,41.00 118.00,41.00
             118.00,41.00 118.00,40.00 118.00,40.00 Z
           M 117.00,41.00
           C 111.01,44.22 104.26,50.68 100.00,56.00
             87.08,72.16 80.64,91.45 85.35,112.00
             86.80,118.34 88.93,125.86 93.00,131.00
             93.00,131.00 90.01,111.00 90.01,111.00
             89.65,95.81 96.03,75.43 102.98,62.00
             102.98,62.00 117.00,41.00 117.00,41.00 Z
           M 144.00,65.00
           C 147.20,60.90 152.48,56.50 158.00,56.39
             166.11,56.23 171.73,64.48 169.15,71.98
             165.04,83.95 154.55,74.34 150.19,83.02
             148.19,87.00 150.70,93.04 152.00,97.00
             159.73,91.93 165.97,95.45 164.71,103.00
             163.56,109.87 149.74,125.02 139.10,117.99
             135.69,115.74 134.16,111.40 132.00,108.00
             130.24,111.27 128.95,113.24 125.98,115.61
             123.94,117.25 121.53,118.49 119.00,119.21
             113.08,120.89 107.10,118.80 104.43,113.00
             101.34,106.26 106.10,98.06 114.00,98.20
             116.50,98.24 117.82,98.99 120.00,100.00
             124.10,92.02 130.72,87.62 124.73,78.15
             121.76,73.45 110.39,75.75 112.47,66.00
             114.06,58.60 129.78,55.31 135.99,57.74
             139.28,59.02 141.72,62.40 144.00,65.00 Z
           M 140.00,79.00
           C 139.29,74.43 137.18,65.15 131.96,63.90
             129.91,63.41 121.64,65.50 119.00,66.00
             122.15,70.71 124.78,67.84 128.61,71.43
             131.74,74.37 134.60,83.71 134.34,88.00
             134.21,90.01 133.49,92.05 133.00,94.00
             133.00,94.00 134.00,94.00 134.00,94.00
             134.00,94.00 136.00,92.00 136.00,92.00
             138.15,99.43 139.68,120.19 151.86,109.47
             153.74,107.82 153.95,107.11 155.00,105.00
             155.00,105.00 149.23,106.68 149.23,106.68
             149.23,106.68 146.05,102.00 146.05,102.00
             146.05,102.00 142.25,85.00 142.25,85.00
             142.25,85.00 144.00,78.00 144.00,78.00
             144.00,78.00 140.00,79.00 140.00,79.00 Z
           M 145.00,76.00
           C 147.14,74.52 150.59,71.57 153.00,71.05
             155.73,70.59 159.08,72.68 161.26,71.05
             163.68,69.11 162.76,63.37 157.96,63.62
             152.25,63.91 147.02,71.27 145.00,76.00 Z
           M 131.00,97.00
           C 128.03,99.48 123.62,105.71 120.96,106.53
             117.75,107.52 113.26,103.46 111.13,107.30
             109.45,110.33 113.25,114.57 119.00,111.68
             124.16,109.09 128.95,102.27 131.00,97.00 Z
           M 158.00,102.00
           C 158.00,102.00 157.00,102.00 157.00,102.00
             157.00,102.00 158.00,103.00 158.00,103.00
             158.00,103.00 158.00,102.00 158.00,102.00 Z
           M 157.00,103.00
           C 157.00,103.00 156.00,103.00 156.00,103.00
             156.00,103.00 157.00,104.00 157.00,104.00
             157.00,104.00 157.00,103.00 157.00,103.00 Z
           M 156.00,104.00
           C 156.00,104.00 155.00,104.00 155.00,104.00
             155.00,104.00 156.00,105.00 156.00,105.00
             156.00,105.00 156.00,104.00 156.00,104.00 Z
           M 161.00,130.00
           C 161.00,130.00 160.00,130.00 160.00,130.00
             160.00,130.00 161.00,131.00 161.00,131.00
             161.00,131.00 161.00,130.00 161.00,130.00 Z
           M 160.00,131.00
           C 160.00,131.00 159.00,131.00 159.00,131.00
             159.00,131.00 160.00,132.00 160.00,132.00
             160.00,132.00 160.00,131.00 160.00,131.00 Z
           M 159.00,132.00
           C 159.00,132.00 158.00,132.00 158.00,132.00
             158.00,132.00 159.00,133.00 159.00,133.00
             159.00,133.00 159.00,132.00 159.00,132.00 Z
           M 158.00,133.00
           C 158.00,133.00 157.00,133.00 157.00,133.00
             157.00,133.00 158.00,134.00 158.00,134.00
             158.00,134.00 158.00,133.00 158.00,133.00 Z
           M 95.00,134.00
           C 95.00,134.00 94.00,134.00 94.00,134.00
             94.00,134.00 95.00,135.00 95.00,135.00
             95.00,135.00 95.00,134.00 95.00,134.00 Z
           M 155.00,135.00
           C 155.00,135.00 154.00,135.00 154.00,135.00
             154.00,135.00 155.00,136.00 155.00,136.00
             155.00,136.00 155.00,135.00 155.00,135.00 Z
           M 96.00,136.00
           C 96.00,136.00 95.00,136.00 95.00,136.00
             95.00,136.00 96.00,137.00 96.00,137.00
             96.00,137.00 96.00,136.00 96.00,136.00 Z" />
</svg>
