<?xml version="1.0" encoding="UTF-8" standalone="no"?>
<!DOCTYPE svg PUBLIC "-//W3C//DTD SVG 20010904//EN"
              "http://www.w3.org/TR/2001/REC-SVG-20010904/DTD/svg10.dtd">

<svg xmlns="http://www.w3.org/2000/svg"
     width="4.34in" height="3.84in"
     viewBox="0 0 434 384">
  <path id="Selection"
        fill="grey" stroke="none" stroke-width="0"
        d="M 156.00,0.52
           C 156.00,0.52 181.00,0.00 181.00,0.00
             181.00,0.00 224.00,0.00 224.00,0.00
             242.96,0.03 249.94,8.37 256.60,25.00
             256.60,25.00 263.40,42.00 263.40,42.00
             264.28,44.20 265.39,47.64 267.41,48.98
             269.30,50.22 272.78,50.00 275.00,50.00
             275.00,50.00 403.00,50.00 403.00,50.00
             422.92,50.03 433.97,62.48 434.00,82.00
             434.00,82.00 434.00,219.00 434.00,219.00
             433.97,238.15 422.48,250.77 403.00,251.00
             399.81,251.03 394.85,251.32 392.04,249.83
             386.50,246.87 385.49,239.63 390.23,235.43
             396.47,229.88 411.87,237.85 415.86,223.00
             416.08,221.03 416.00,218.07 415.86,216.00
             415.86,216.00 415.86,103.00 415.86,103.00
             416.00,98.07 416.46,80.54 415.35,77.00
             414.24,73.46 411.50,70.09 408.00,68.74
             405.75,67.87 402.43,68.00 400.00,68.00
             400.00,68.00 267.00,68.00 267.00,68.00
             263.14,67.99 258.56,68.16 255.21,65.91
             251.61,63.50 249.59,56.98 248.00,53.00
             248.00,53.00 239.60,32.00 239.60,32.00
             237.60,27.03 235.97,22.32 230.96,19.57
             227.71,17.78 224.57,18.01 221.00,18.00
             221.00,18.00 166.00,18.00 166.00,18.00
             158.68,18.04 153.23,19.97 151.39,28.00
             149.89,34.54 153.16,43.83 143.98,46.31
             141.98,46.85 139.89,46.62 138.04,45.68
             132.01,42.64 132.94,35.67 133.00,30.00
             133.18,14.78 141.33,4.46 156.00,0.52 Z
           M 88.00,67.53
           C 88.00,67.53 114.00,67.00 114.00,67.00
             114.00,67.00 159.00,67.00 159.00,67.00
             178.67,67.03 184.30,77.74 190.80,94.00
             192.61,98.52 197.67,113.84 201.22,115.98
             203.26,117.20 206.66,117.00 209.00,117.00
             209.00,117.00 337.00,117.00 337.00,117.00
             355.69,117.03 366.97,128.30 367.00,147.00
             367.00,147.00 367.00,287.00 367.00,287.00
             366.98,302.18 359.33,313.48 344.00,316.79
             337.18,318.26 326.23,319.89 321.86,312.95
             320.74,311.17 320.24,309.08 320.66,307.00
             322.63,297.30 333.47,301.37 340.00,299.15
             349.17,296.03 349.99,288.31 350.00,280.00
             350.00,280.00 350.00,169.00 350.00,169.00
             350.00,157.97 353.12,139.31 340.00,134.85
             337.13,133.88 333.99,134.00 331.00,134.00
             331.00,134.00 198.00,134.00 198.00,134.00
             184.56,133.98 185.69,129.55 180.72,118.00
             177.03,109.41 171.83,90.60 164.00,86.09
             160.13,83.86 156.28,84.01 152.00,84.00
             152.00,84.00 110.00,84.00 110.00,84.00
             103.84,84.00 95.21,83.07 90.04,86.70
             86.48,89.20 84.53,92.71 84.10,97.00
             83.56,102.44 85.39,109.57 78.91,112.49
             77.28,112.94 74.74,113.06 73.02,112.49
             65.93,111.31 65.88,103.76 66.01,98.00
             66.35,83.40 73.59,71.79 88.00,67.53 Z
           M 25.00,133.23
           C 25.00,133.23 80.00,133.23 80.00,133.23
             90.84,133.00 100.61,131.90 110.00,138.63
             120.00,145.80 122.55,157.18 127.01,168.00
             132.53,181.39 131.61,182.98 142.00,183.00
             142.00,183.00 267.00,183.00 267.00,183.00
             290.13,183.04 300.96,195.28 301.00,218.00
             301.00,218.00 301.00,350.00 301.00,350.00
             300.97,369.96 291.13,383.97 270.00,384.00
             270.00,384.00 62.00,384.00 62.00,384.00
             62.00,384.00 40.00,384.00 40.00,384.00
             22.83,384.00 8.81,384.18 1.47,365.00
             -0.13,360.83 0.01,358.34 0.00,354.00
             0.00,354.00 0.00,189.00 0.00,189.00
             0.00,189.00 0.00,170.00 0.00,170.00
             0.00,155.85 0.11,145.46 14.00,137.27
             17.79,135.03 20.79,134.37 25.00,133.23 Z
           M 27.00,151.20
           C 18.79,154.05 17.10,158.93 17.00,167.00
             17.00,167.00 17.00,249.00 17.00,249.00
             17.00,249.00 17.00,348.00 17.00,348.00
             17.02,363.21 22.28,366.98 37.00,367.00
             37.00,367.00 226.00,367.00 226.00,367.00
             226.00,367.00 265.00,367.00 265.00,367.00
             269.49,366.94 275.11,366.40 278.66,363.35
             283.08,359.57 282.99,354.29 283.00,349.00
             283.00,349.00 283.00,236.00 283.00,236.00
             283.00,231.07 283.46,213.54 282.35,210.00
             281.21,206.36 278.58,203.28 275.00,201.89
             272.36,200.87 268.81,201.00 266.00,201.00
             266.00,201.00 133.00,201.00 133.00,201.00
             129.52,200.99 126.10,201.27 123.04,199.26
             119.03,196.63 117.50,192.23 115.80,188.00
             115.80,188.00 107.00,166.00 107.00,166.00
             105.08,161.20 103.58,155.92 98.96,153.01
             95.44,150.79 91.96,151.01 88.00,151.20
             88.00,151.20 27.00,151.20 27.00,151.20 Z" />
</svg>
