<?xml version="1.0" encoding="UTF-8" standalone="no"?>
<!DOCTYPE svg PUBLIC "-//W3C//DTD SVG 20010904//EN"
              "http://www.w3.org/TR/2001/REC-SVG-20010904/DTD/svg10.dtd">

<svg xmlns="http://www.w3.org/2000/svg"
     width="6.29in" height="5.05in"
     viewBox="0 0 629 505">
  <path id="Selection #1"
        fill="red" stroke="none" stroke-width="1"
        d="M 0.00,0.00
           C 76.73,24.15 63.04,50.17 63.00,79.00
             63.00,79.00 63.00,305.00 63.00,305.00
             63.00,305.00 84.00,305.00 84.00,305.00
             84.00,305.00 84.00,76.00 84.00,76.00
             84.05,45.01 107.73,20.05 139.00,20.00
             139.00,20.00 503.00,20.00 503.00,20.00
             503.00,20.00 493.57,32.00 493.57,32.00
             486.11,42.65 480.16,57.90 480.00,71.00
             480.00,71.00 480.00,159.00 480.00,159.00
             480.00,159.00 480.00,425.00 480.00,425.00
             479.97,441.62 474.93,457.03 462.96,468.96
             439.15,492.69 401.58,488.90 381.93,462.00
             369.08,444.43 371.00,428.34 371.00,408.00
             371.00,408.00 371.00,324.00 371.00,324.00
             371.00,324.00 0.00,324.00 0.00,324.00
             0.00,324.00 0.00,0.00 0.00,0.00 Z
           M 500.00,160.00
           C 500.00,160.00 500.00,94.00 500.00,94.00
             500.00,73.55 498.56,57.02 512.76,40.00
             521.64,29.36 535.06,21.56 549.00,20.17
             579.37,17.13 607.95,42.40 608.00,73.00
             608.00,73.00 608.00,160.00 608.00,160.00
             608.00,160.00 500.00,160.00 500.00,160.00 Z
           M 150.00,106.11
           C 142.05,109.59 139.12,118.73 146.21,124.30
             149.57,126.94 153.94,126.98 158.00,127.00
             158.00,127.00 205.00,127.00 205.00,127.00
             205.00,127.00 393.00,127.00 393.00,127.00
             397.04,126.99 401.30,127.19 404.80,124.77
             410.29,120.97 410.37,111.84 404.80,108.01
             401.58,105.77 397.74,106.01 394.00,106.11
             394.00,106.11 232.00,106.11 232.00,106.11
             232.00,106.11 179.00,106.11 179.00,106.11
             179.00,106.11 150.00,106.11 150.00,106.11 Z
           M 150.00,174.11
           C 141.00,178.01 140.11,187.71 146.22,192.26
             148.95,194.29 152.77,193.99 156.00,194.00
             156.00,194.00 205.00,194.00 205.00,194.00
             205.00,194.00 396.00,194.00 396.00,194.00
             399.05,193.99 402.27,194.27 404.89,192.40
             409.93,188.82 410.34,180.69 405.66,176.65
             402.30,173.75 398.14,174.01 394.00,174.11
             394.00,174.11 232.00,174.11 232.00,174.11
             232.00,174.11 179.00,174.11 179.00,174.11
             179.00,174.11 150.00,174.11 150.00,174.11 Z

           M 150.00,242.11
           C 141.21,245.93 139.94,255.43 146.22,260.11
             149.10,262.25 152.61,261.99 156.00,262.00
             156.00,262.00 205.00,262.00 205.00,262.00
             205.00,262.00 395.00,262.00 395.00,262.00
             398.34,261.99 402.00,262.27 404.89,260.26
             409.85,256.81 410.45,248.57 405.77,244.65
             402.36,241.79 398.16,242.01 394.00,242.11
             394.00,242.11 232.00,242.11 232.00,242.11
             232.00,242.11 179.00,242.11 179.00,242.11
             179.00,242.11 150.00,242.11 150.00,242.11 Z
           M 21.00,344.00
           C 21.00,344.00 351.00,344.00 351.00,344.00
             351.00,344.00 351.00,432.00 351.00,432.00
             351.07,446.07 356.62,460.35 364.24,472.00
             364.24,472.00 374.00,485.00 374.00,485.00
             374.00,485.00 176.00,485.00 176.00,485.00
             176.00,485.00 76.00,485.00 76.00,485.00
             45.74,484.64 21.05,460.33 21.00,430.00
             21.00,430.00 21.00,344.00 21.00,344.00 Z
" />
</svg>
