<?xml version="1.0" encoding="UTF-8" standalone="no"?>
<!DOCTYPE svg PUBLIC "-//W3C//DTD SVG 20010904//EN"
              "http://www.w3.org/TR/2001/REC-SVG-20010904/DTD/svg10.dtd">

<svg xmlns="http://www.w3.org/2000/svg"
     width="27.9in" height="26.97in"
     viewBox="0 0 2790 2697">
  <path id="Selection"
        fill="red" stroke="none" stroke-width="1"
        d="M 186.00,1191.00
           C 186.00,1191.00 130.00,1157.42 130.00,1157.42
             130.00,1157.42 45.00,1105.42 45.00,1105.42
             37.94,1101.05 23.54,1092.88 18.01,1087.83
             5.55,1076.44 1.34,1063.32 0.74,1047.00
             0.53,1041.06 1.74,1035.58 3.69,1030.00
             11.12,1008.79 28.22,1000.23 46.00,988.95
             46.00,988.95 80.00,966.67 80.00,966.67
             80.00,966.67 343.00,794.67 343.00,794.67
             343.00,794.67 533.00,670.66 533.00,670.66
             533.00,670.66 868.00,451.66 868.00,451.66
             868.00,451.66 1125.00,283.66 1125.00,283.66
             1125.00,283.66 1253.00,199.95 1253.00,199.95
             1253.00,199.95 1296.00,171.69 1296.00,171.69
             1296.00,171.69 1433.00,82.31 1433.00,82.31
             1433.00,82.31 1483.00,49.58 1483.00,49.58
             1483.00,49.58 1534.00,16.31 1534.00,16.31
             1547.27,7.76 1551.63,3.15 1568.00,0.87
             1571.35,0.40 1573.53,-0.10 1577.00,0.09
             1596.29,1.18 1604.20,7.92 1620.00,17.40
             1620.00,17.40 1666.00,45.58 1666.00,45.58
             1666.00,45.58 1850.00,158.19 1850.00,158.19
             1850.00,158.19 2288.00,426.19 2288.00,426.19
             2288.00,426.19 2524.00,570.58 2524.00,570.58
             2524.00,570.58 2677.00,664.19 2677.00,664.19
             2677.00,664.19 2728.00,695.32 2728.00,695.32
             2737.71,701.44 2766.37,717.85 2772.99,724.09
             2784.57,735.01 2790.17,749.25 2790.00,765.00
             2789.63,797.75 2764.03,810.21 2740.00,825.69
             2740.00,825.69 2646.00,887.33 2646.00,887.33
             2646.00,887.33 2618.00,905.66 2618.00,905.66
             2618.00,905.66 2604.00,915.00 2604.00,915.00
             2604.00,915.00 2663.00,950.58 2663.00,950.58
             2663.00,950.58 2747.00,1001.95 2747.00,1001.95
             2747.00,1001.95 2771.00,1017.32 2771.00,1017.32
             2782.44,1026.90 2789.83,1042.07 2790.00,1057.00
             2790.05,1062.13 2789.74,1066.99 2788.49,1072.00
             2782.17,1097.25 2760.13,1107.72 2740.00,1120.69
             2740.00,1120.69 2646.00,1182.33 2646.00,1182.33
             2646.00,1182.33 2618.00,1200.66 2618.00,1200.66
             2618.00,1200.66 2604.00,1210.00 2604.00,1210.00
             2604.00,1210.00 2663.00,1245.58 2663.00,1245.58
             2663.00,1245.58 2747.00,1296.95 2747.00,1296.95
             2747.00,1296.95 2771.00,1312.32 2771.00,1312.32
             2782.44,1321.90 2789.83,1337.07 2790.00,1352.00
             2790.05,1357.13 2789.74,1361.99 2788.49,1367.00
             2782.17,1392.25 2760.13,1402.72 2740.00,1415.69
             2740.00,1415.69 2646.00,1477.33 2646.00,1477.33
             2646.00,1477.33 2618.00,1495.66 2618.00,1495.66
             2618.00,1495.66 2604.00,1505.00 2604.00,1505.00
             2604.00,1505.00 2663.00,1540.58 2663.00,1540.58
             2663.00,1540.58 2747.00,1591.95 2747.00,1591.95
             2747.00,1591.95 2771.00,1607.32 2771.00,1607.32
             2782.44,1616.90 2789.83,1632.07 2790.00,1647.00
             2790.38,1681.14 2767.68,1693.35 2742.00,1709.42
             2742.00,1709.42 2710.00,1730.33 2710.00,1730.33
             2710.00,1730.33 2451.00,1899.67 2451.00,1899.67
             2451.00,1899.67 2277.00,2013.34 2277.00,2013.34
             2277.00,2013.34 1942.00,2232.34 1942.00,2232.34
             1942.00,2232.34 1662.00,2415.34 1662.00,2415.34
             1662.00,2415.34 1534.00,2499.05 1534.00,2499.05
             1534.00,2499.05 1489.00,2528.66 1489.00,2528.66
             1489.00,2528.66 1354.00,2616.69 1354.00,2616.69
             1354.00,2616.69 1304.00,2649.42 1304.00,2649.42
             1304.00,2649.42 1252.00,2683.42 1252.00,2683.42
             1240.04,2690.91 1226.73,2698.28 1212.00,2696.83
             1195.32,2695.19 1186.78,2688.87 1173.00,2680.60
             1173.00,2680.60 1127.00,2652.40 1127.00,2652.40
             1127.00,2652.40 942.00,2539.20 942.00,2539.20
             942.00,2539.20 267.00,2126.20 267.00,2126.20
             267.00,2126.20 63.00,2001.42 63.00,2001.42
             52.95,1995.20 23.94,1978.61 17.04,1971.91
             5.27,1960.49 -0.04,1945.21 0.75,1929.00
             2.13,1900.45 23.47,1888.05 45.00,1874.58
             45.00,1874.58 147.00,1807.95 147.00,1807.95
             147.00,1807.95 186.00,1783.00 186.00,1783.00
             186.00,1783.00 186.00,1781.00 186.00,1781.00
             178.14,1777.49 169.53,1771.53 162.00,1767.00
             162.00,1767.00 115.00,1738.20 115.00,1738.20
             115.00,1738.20 60.00,1704.60 60.00,1704.60
             60.00,1704.60 22.00,1681.08 22.00,1681.08
             6.98,1669.99 -0.14,1652.35 0.75,1634.00
             2.13,1605.45 23.47,1593.05 45.00,1579.58
             45.00,1579.58 147.00,1512.95 147.00,1512.95
             147.00,1512.95 186.00,1488.00 186.00,1488.00
             186.00,1488.00 186.00,1486.00 186.00,1486.00
             178.14,1482.49 169.53,1476.53 162.00,1472.00
             162.00,1472.00 115.00,1443.20 115.00,1443.20
             115.00,1443.20 60.00,1409.60 60.00,1409.60
             60.00,1409.60 22.00,1386.08 22.00,1386.08
             6.98,1374.99 -0.14,1357.35 0.75,1339.00
             2.13,1310.45 23.47,1298.05 45.00,1284.58
             45.00,1284.58 147.00,1217.95 147.00,1217.95
             147.00,1217.95 186.00,1193.00 186.00,1193.00
             186.00,1193.00 186.00,1191.00 186.00,1191.00 Z
           M 2637.00,765.00
           C 2637.00,765.00 2605.00,745.19 2605.00,745.19
             2605.00,745.19 2551.00,712.19 2551.00,712.19
             2551.00,712.19 2399.00,619.19 2399.00,619.19
             2399.00,619.19 2039.00,398.81 2039.00,398.81
             2039.00,398.81 1874.00,297.95 1874.00,297.95
             1874.00,297.95 1791.00,247.19 1791.00,247.19
             1791.00,247.19 1658.00,165.80 1658.00,165.80
             1658.00,165.80 1601.00,130.95 1601.00,130.95
             1601.00,130.95 1585.00,121.19 1585.00,121.19
             1582.94,119.93 1579.35,117.31 1577.00,117.20
             1574.47,117.09 1571.12,119.50 1569.00,120.81
             1569.00,120.81 1550.00,133.33 1550.00,133.33
             1550.00,133.33 1482.00,177.67 1482.00,177.67
             1482.00,177.67 1224.00,346.33 1224.00,346.33
             1224.00,346.33 1025.00,476.34 1025.00,476.34
             1025.00,476.34 751.00,655.66 751.00,655.66
             751.00,655.66 472.00,838.00 472.00,838.00
             472.00,838.00 249.00,983.67 249.00,983.67
             249.00,983.67 187.00,1024.31 187.00,1024.31
             179.84,1028.92 158.64,1041.69 154.00,1047.00
             154.00,1047.00 316.00,1146.19 316.00,1146.19
             316.00,1146.19 553.00,1291.19 553.00,1291.19
             553.00,1291.19 790.00,1436.19 790.00,1436.19
             790.00,1436.19 919.00,1515.05 919.00,1515.05
             919.00,1515.05 1020.00,1576.81 1020.00,1576.81
             1020.00,1576.81 1134.00,1646.60 1134.00,1646.60
             1134.00,1646.60 1191.00,1681.42 1191.00,1681.42
             1191.00,1681.42 1206.00,1690.60 1206.00,1690.60
             1206.00,1690.60 1214.00,1694.19 1214.00,1694.19
             1214.00,1694.19 1223.00,1690.00 1223.00,1690.00
             1223.00,1690.00 1241.00,1678.05 1241.00,1678.05
             1241.00,1678.05 1312.00,1631.67 1312.00,1631.67
             1312.00,1631.67 1427.00,1556.66 1427.00,1556.66
             1427.00,1556.66 1575.00,1459.69 1575.00,1459.69
             1575.00,1459.69 1805.00,1309.34 1805.00,1309.34
             1805.00,1309.34 2290.00,992.34 2290.00,992.34
             2290.00,992.34 2455.00,884.66 2455.00,884.66
             2455.00,884.66 2522.00,840.69 2522.00,840.69
             2522.00,840.69 2599.00,790.34 2599.00,790.34
             2599.00,790.34 2637.00,765.00 2637.00,765.00 Z
           M 1603.00,364.43
           C 1627.16,361.44 1640.72,372.86 1660.00,384.95
             1660.00,384.95 1731.00,429.00 1731.00,429.00
             1731.00,429.00 1851.00,503.58 1851.00,503.58
             1851.00,503.58 2058.00,632.05 2058.00,632.05
             2058.00,632.05 2136.00,680.58 2136.00,680.58
             2136.00,680.58 2155.00,692.53 2155.00,692.53
             2167.51,702.21 2175.81,717.04 2176.00,733.00
             2176.11,742.37 2175.61,749.23 2171.69,758.00
             2168.59,764.91 2164.00,771.56 2157.99,776.25
             2153.20,779.98 2149.62,782.32 2144.00,784.60
             2116.53,795.73 2099.72,784.27 2077.00,770.05
             2077.00,770.05 2041.00,747.80 2041.00,747.80
             2041.00,747.80 1894.00,656.42 1894.00,656.42
             1894.00,656.42 1637.00,496.95 1637.00,496.95
             1637.00,496.95 1596.00,471.42 1596.00,471.42
             1584.18,464.06 1574.98,459.66 1566.59,448.00
             1552.19,427.98 1554.16,397.95 1571.29,380.17
             1580.24,370.87 1590.51,366.48 1603.00,364.43 Z
           M 1195.00,531.42
           C 1218.94,528.50 1235.99,543.03 1255.00,554.95
             1255.00,554.95 1360.00,621.31 1360.00,621.31
             1360.00,621.31 1450.00,678.05 1450.00,678.05
             1450.00,678.05 1684.00,825.95 1684.00,825.95
             1684.00,825.95 1783.00,888.34 1783.00,888.34
             1783.00,888.34 1900.00,962.31 1900.00,962.31
             1905.59,965.90 1913.10,970.10 1918.00,974.30
             1929.27,983.95 1937.81,1000.87 1936.68,1016.00
             1934.78,1041.32 1922.47,1059.91 1897.00,1066.71
             1891.16,1068.27 1885.96,1068.07 1880.00,1068.00
             1861.08,1067.77 1841.77,1052.24 1826.00,1042.42
             1826.00,1042.42 1714.00,971.68 1714.00,971.68
             1714.00,971.68 1301.00,710.95 1301.00,710.95
             1301.00,710.95 1199.00,646.42 1199.00,646.42
             1178.84,633.81 1156.65,623.87 1149.74,599.00
             1147.75,591.80 1147.92,587.31 1148.00,580.00
             1148.23,561.43 1161.36,543.49 1178.00,535.90
             1184.21,533.06 1188.43,532.42 1195.00,531.42 Z
           M 853.00,746.42
           C 877.46,743.44 892.55,756.73 912.00,768.81
             912.00,768.81 1016.00,834.58 1016.00,834.58
             1016.00,834.58 1442.00,1103.58 1442.00,1103.58
             1442.00,1103.58 1544.00,1167.95 1544.00,1167.95
             1562.35,1179.46 1585.01,1189.91 1592.25,1212.00
             1594.87,1220.00 1595.09,1225.75 1595.00,1234.00
             1594.73,1256.95 1576.76,1276.49 1555.00,1281.76
             1549.05,1283.20 1545.02,1283.07 1539.00,1283.00
             1523.85,1282.82 1513.26,1275.41 1501.00,1267.68
             1501.00,1267.68 1472.00,1249.34 1472.00,1249.34
             1472.00,1249.34 1339.00,1165.34 1339.00,1165.34
             1339.00,1165.34 1229.00,1095.95 1229.00,1095.95
             1229.00,1095.95 987.00,943.05 987.00,943.05
             987.00,943.05 874.00,871.69 874.00,871.69
             874.00,871.69 826.01,840.91 826.01,840.91
             799.65,819.09 799.67,777.59 827.00,756.53
             835.30,750.13 842.92,747.95 853.00,746.42 Z
           M 2637.00,1060.00
           C 2637.00,1060.00 2599.00,1036.58 2599.00,1036.58
             2599.00,1036.58 2539.00,999.80 2539.00,999.80
             2539.00,999.80 2515.00,985.19 2515.00,985.19
             2512.11,983.42 2507.42,979.70 2504.00,980.23
             2501.64,980.59 2497.13,983.92 2495.00,985.33
             2495.00,985.33 2477.00,997.00 2477.00,997.00
             2477.00,997.00 2417.00,1036.33 2417.00,1036.33
             2417.00,1036.33 2210.00,1171.67 2210.00,1171.67
             2210.00,1171.67 2071.00,1262.34 2071.00,1262.34
             2071.00,1262.34 1719.00,1492.66 1719.00,1492.66
             1719.00,1492.66 1566.00,1592.66 1566.00,1592.66
             1566.00,1592.66 1502.00,1634.33 1502.00,1634.33
             1502.00,1634.33 1300.00,1766.34 1300.00,1766.34
             1300.00,1766.34 1253.00,1797.05 1253.00,1797.05
             1241.04,1804.64 1237.41,1808.04 1223.00,1810.80
             1219.83,1811.41 1217.29,1812.05 1214.00,1811.90
             1199.93,1811.26 1189.62,1804.99 1178.00,1798.00
             1178.00,1798.00 1146.00,1778.42 1146.00,1778.42
             1146.00,1778.42 1010.00,1695.20 1010.00,1695.20
             1010.00,1695.20 611.00,1451.19 611.00,1451.19
             611.00,1451.19 497.00,1381.40 497.00,1381.40
             497.00,1381.40 345.00,1288.40 345.00,1288.40
             345.00,1288.40 305.00,1263.95 305.00,1263.95
             301.63,1261.84 291.43,1254.87 288.00,1254.81
             284.71,1254.74 279.74,1258.51 277.00,1260.33
             277.00,1260.33 253.00,1276.00 253.00,1276.00
             253.00,1276.00 187.00,1319.31 187.00,1319.31
             179.84,1323.92 158.64,1336.69 154.00,1342.00
             154.00,1342.00 298.00,1430.19 298.00,1430.19
             298.00,1430.19 553.00,1586.19 553.00,1586.19
             553.00,1586.19 790.00,1731.19 790.00,1731.19
             790.00,1731.19 919.00,1810.05 919.00,1810.05
             919.00,1810.05 1020.00,1871.81 1020.00,1871.81
             1020.00,1871.81 1134.00,1941.60 1134.00,1941.60
             1134.00,1941.60 1191.00,1976.42 1191.00,1976.42
             1191.00,1976.42 1206.00,1985.60 1206.00,1985.60
             1206.00,1985.60 1214.00,1989.19 1214.00,1989.19
             1214.00,1989.19 1223.00,1985.00 1223.00,1985.00
             1223.00,1985.00 1241.00,1973.05 1241.00,1973.05
             1241.00,1973.05 1312.00,1926.67 1312.00,1926.67
             1312.00,1926.67 1427.00,1851.66 1427.00,1851.66
             1427.00,1851.66 1575.00,1754.69 1575.00,1754.69
             1575.00,1754.69 1805.00,1604.34 1805.00,1604.34
             1805.00,1604.34 2290.00,1287.34 2290.00,1287.34
             2290.00,1287.34 2452.00,1181.66 2452.00,1181.66
             2452.00,1181.66 2522.00,1135.69 2522.00,1135.69
             2522.00,1135.69 2599.00,1085.34 2599.00,1085.34
             2599.00,1085.34 2637.00,1060.00 2637.00,1060.00 Z
           M 2637.00,1355.00
           C 2637.00,1355.00 2599.00,1331.58 2599.00,1331.58
             2599.00,1331.58 2539.00,1294.80 2539.00,1294.80
             2539.00,1294.80 2515.00,1280.19 2515.00,1280.19
             2512.11,1278.42 2507.42,1274.70 2504.00,1275.23
             2501.64,1275.59 2497.13,1278.92 2495.00,1280.33
             2495.00,1280.33 2477.00,1292.00 2477.00,1292.00
             2477.00,1292.00 2417.00,1331.33 2417.00,1331.33
             2417.00,1331.33 2210.00,1466.67 2210.00,1466.67
             2210.00,1466.67 2071.00,1557.34 2071.00,1557.34
             2071.00,1557.34 1696.00,1802.66 1696.00,1802.66
             1696.00,1802.66 1502.00,1929.33 1502.00,1929.33
             1502.00,1929.33 1300.00,2061.34 1300.00,2061.34
             1300.00,2061.34 1253.00,2092.05 1253.00,2092.05
             1241.04,2099.64 1237.41,2103.04 1223.00,2105.80
             1219.83,2106.41 1217.29,2107.05 1214.00,2106.90
             1199.93,2106.26 1189.62,2099.99 1178.00,2093.00
             1178.00,2093.00 1146.00,2073.42 1146.00,2073.42
             1146.00,2073.42 1010.00,1990.20 1010.00,1990.20
             1010.00,1990.20 611.00,1746.19 611.00,1746.19
             611.00,1746.19 497.00,1676.40 497.00,1676.40
             497.00,1676.40 345.00,1583.40 345.00,1583.40
             345.00,1583.40 305.00,1558.95 305.00,1558.95
             301.63,1556.84 291.43,1549.87 288.00,1549.81
             284.71,1549.74 279.74,1553.51 277.00,1555.33
             277.00,1555.33 253.00,1571.00 253.00,1571.00
             253.00,1571.00 187.00,1614.31 187.00,1614.31
             179.84,1618.92 158.64,1631.69 154.00,1637.00
             154.00,1637.00 316.00,1736.19 316.00,1736.19
             316.00,1736.19 553.00,1881.19 553.00,1881.19
             553.00,1881.19 790.00,2026.19 790.00,2026.19
             790.00,2026.19 919.00,2105.05 919.00,2105.05
             919.00,2105.05 1020.00,2166.81 1020.00,2166.81
             1020.00,2166.81 1134.00,2236.60 1134.00,2236.60
             1134.00,2236.60 1191.00,2271.42 1191.00,2271.42
             1191.00,2271.42 1206.00,2280.60 1206.00,2280.60
             1206.00,2280.60 1214.00,2284.19 1214.00,2284.19
             1214.00,2284.19 1223.00,2280.00 1223.00,2280.00
             1223.00,2280.00 1241.00,2268.05 1241.00,2268.05
             1241.00,2268.05 1312.00,2221.67 1312.00,2221.67
             1312.00,2221.67 1427.00,2146.66 1427.00,2146.66
             1427.00,2146.66 1575.00,2049.69 1575.00,2049.69
             1575.00,2049.69 1805.00,1899.34 1805.00,1899.34
             1805.00,1899.34 2290.00,1582.34 2290.00,1582.34
             2290.00,1582.34 2452.00,1476.66 2452.00,1476.66
             2452.00,1476.66 2522.00,1430.69 2522.00,1430.69
             2522.00,1430.69 2599.00,1380.34 2599.00,1380.34
             2599.00,1380.34 2637.00,1355.00 2637.00,1355.00 Z
           M 1036.00,1277.42
           C 1059.56,1274.57 1081.12,1292.42 1100.00,1304.32
             1100.00,1304.32 1214.00,1376.32 1214.00,1376.32
             1234.13,1389.01 1254.08,1397.82 1260.52,1423.00
             1262.19,1429.53 1262.01,1432.45 1262.00,1439.00
             1261.95,1473.81 1226.57,1497.46 1194.00,1487.79
             1181.11,1483.96 1152.97,1464.50 1140.00,1456.42
             1140.00,1456.42 1039.00,1392.68 1039.00,1392.68
             1022.09,1382.02 999.77,1371.40 991.93,1352.00
             988.03,1342.36 987.88,1336.12 988.00,1326.00
             988.24,1306.58 1002.35,1288.33 1020.00,1281.09
             1026.97,1278.23 1029.02,1278.44 1036.00,1277.42 Z
           M 2637.00,1650.00
           C 2637.00,1650.00 2599.00,1626.58 2599.00,1626.58
             2599.00,1626.58 2539.00,1589.80 2539.00,1589.80
             2539.00,1589.80 2515.00,1575.05 2515.00,1575.05
             2512.23,1573.32 2507.30,1569.72 2504.00,1570.23
             2501.64,1570.60 2497.13,1573.91 2495.00,1575.33
             2495.00,1575.33 2477.00,1587.00 2477.00,1587.00
             2477.00,1587.00 2417.00,1626.33 2417.00,1626.33
             2417.00,1626.33 2210.00,1761.67 2210.00,1761.67
             2210.00,1761.67 2071.00,1852.34 2071.00,1852.34
             2071.00,1852.34 1696.00,2097.66 1696.00,2097.66
             1696.00,2097.66 1502.00,2224.33 1502.00,2224.33
             1502.00,2224.33 1300.00,2356.34 1300.00,2356.34
             1300.00,2356.34 1253.00,2387.05 1253.00,2387.05
             1241.04,2394.64 1237.41,2398.04 1223.00,2400.80
             1219.83,2401.41 1217.29,2402.05 1214.00,2401.90
             1199.93,2401.26 1189.62,2394.99 1178.00,2388.00
             1178.00,2388.00 1146.00,2368.42 1146.00,2368.42
             1146.00,2368.42 1010.00,2285.20 1010.00,2285.20
             1010.00,2285.20 611.00,2041.19 611.00,2041.19
             611.00,2041.19 497.00,1971.40 497.00,1971.40
             497.00,1971.40 345.00,1878.40 345.00,1878.40
             345.00,1878.40 305.00,1853.95 305.00,1853.95
             301.63,1851.84 291.43,1844.87 288.00,1844.81
             284.71,1844.74 279.74,1848.51 277.00,1850.33
             277.00,1850.33 253.00,1866.00 253.00,1866.00
             253.00,1866.00 187.00,1909.31 187.00,1909.31
             179.84,1913.92 158.64,1926.69 154.00,1932.00
             154.00,1932.00 298.00,2020.19 298.00,2020.19
             298.00,2020.19 602.00,2206.19 602.00,2206.19
             602.00,2206.19 838.00,2350.58 838.00,2350.58
             838.00,2350.58 919.00,2400.05 919.00,2400.05
             919.00,2400.05 1020.00,2461.81 1020.00,2461.81
             1020.00,2461.81 1134.00,2531.60 1134.00,2531.60
             1134.00,2531.60 1191.00,2566.42 1191.00,2566.42
             1191.00,2566.42 1206.00,2575.60 1206.00,2575.60
             1206.00,2575.60 1214.00,2579.19 1214.00,2579.19
             1214.00,2579.19 1223.00,2575.00 1223.00,2575.00
             1223.00,2575.00 1241.00,2563.05 1241.00,2563.05
             1241.00,2563.05 1312.00,2516.67 1312.00,2516.67
             1312.00,2516.67 1427.00,2441.66 1427.00,2441.66
             1427.00,2441.66 1575.00,2344.69 1575.00,2344.69
             1575.00,2344.69 1805.00,2194.34 1805.00,2194.34
             1805.00,2194.34 2290.00,1877.34 2290.00,1877.34
             2290.00,1877.34 2452.00,1771.66 2452.00,1771.66
             2452.00,1771.66 2522.00,1725.69 2522.00,1725.69
             2522.00,1725.69 2599.00,1675.34 2599.00,1675.34
             2599.00,1675.34 2637.00,1650.00 2637.00,1650.00 Z" />
</svg>
