<?xml version="1.0" encoding="UTF-8" standalone="no"?>
<!DOCTYPE svg PUBLIC "-//W3C//DTD SVG 20010904//EN"
              "http://www.w3.org/TR/2001/REC-SVG-20010904/DTD/svg10.dtd">

<svg xmlns="http://www.w3.org/2000/svg"
     width="3.58in" height="3.58in"
     viewBox="0 0 358 358">
  <path id="Selection"
        fill="red" stroke="none" stroke-width="1"
        d="M 144.00,119.00
           C 148.21,113.13 155.71,106.29 161.00,101.00
             171.89,90.11 181.25,78.69 198.00,78.57
             206.22,78.52 214.54,81.54 221.00,86.53
             226.07,90.44 228.17,95.05 233.00,91.71
             233.00,91.71 255.00,70.00 255.00,70.00
             255.00,70.00 300.00,25.00 300.00,25.00
             300.00,25.00 317.00,8.00 317.00,8.00
             318.74,6.26 322.73,1.90 325.00,1.34
             328.32,0.51 331.89,4.91 334.00,7.00
             334.00,7.00 349.00,22.00 349.00,22.00
             350.68,23.68 355.36,28.13 356.26,30.00
             357.88,33.41 355.17,35.70 352.98,38.00
             352.98,38.00 336.00,55.00 336.00,55.00
             336.00,55.00 287.00,104.00 287.00,104.00
             287.00,104.00 273.00,118.00 273.00,118.00
             271.40,119.60 266.48,124.30 265.63,126.00
             263.52,130.20 268.71,133.11 272.21,138.00
             276.52,144.01 279.34,153.60 278.91,161.00
             277.82,179.76 262.31,190.69 250.00,203.00
             247.85,205.15 241.04,211.07 241.04,214.00
             241.04,215.94 242.83,217.67 244.04,219.00
             246.42,221.63 249.98,224.49 251.02,228.00
             252.42,232.72 248.79,236.54 244.00,235.53
             240.11,234.70 235.78,229.78 233.00,227.00
             233.00,227.00 213.00,207.00 213.00,207.00
             213.00,207.00 137.00,131.00 137.00,131.00
             133.69,127.69 123.95,118.81 122.60,115.00
             120.95,110.33 123.56,105.31 129.00,106.47
             133.43,107.42 140.63,115.63 144.00,119.00 Z
           M 119.00,143.00
           C 115.43,140.44 108.01,134.11 106.61,130.00
             105.24,125.96 107.54,122.05 112.02,122.25
             116.02,122.43 119.34,126.35 122.00,129.00
             122.00,129.00 139.00,146.00 139.00,146.00
             139.00,146.00 210.00,217.00 210.00,217.00
             210.00,217.00 229.98,237.00 229.98,237.00
             232.46,239.55 236.14,243.02 235.46,246.96
             235.18,248.59 234.21,249.99 232.77,250.81
             227.16,254.03 221.68,246.15 218.00,243.11
             216.48,241.86 215.12,240.64 213.00,241.20
             210.62,241.82 204.07,248.93 202.00,251.00
             194.16,258.84 181.19,274.05 171.00,277.23
             161.47,280.20 150.91,280.01 142.00,275.10
             133.82,270.59 131.25,264.08 127.00,265.20
             124.43,265.87 115.42,275.58 113.00,278.00
             113.00,278.00 78.00,313.00 78.00,313.00
             78.00,313.00 44.00,347.00 44.00,347.00
             41.11,349.89 34.43,358.36 30.00,356.83
             27.76,356.06 23.78,351.78 22.00,350.00
             22.00,350.00 6.00,334.00 6.00,334.00
             3.77,331.73 -0.07,328.59 1.17,325.00
             1.89,322.91 5.38,319.63 7.00,318.00
             7.00,318.00 21.00,304.00 21.00,304.00
             21.00,304.00 72.00,253.00 72.00,253.00
             72.00,253.00 87.00,238.00 87.00,238.00
             88.54,236.46 92.27,233.02 92.80,231.00
             93.77,227.35 87.44,222.89 84.63,219.00
             80.82,213.72 77.76,203.52 78.33,197.00
             78.69,192.80 80.37,185.71 82.33,182.00
             85.64,175.71 91.04,170.96 96.00,166.00
             96.00,166.00 119.00,143.00 119.00,143.00 Z" />
</svg>
