<?xml version="1.0" encoding="UTF-8" standalone="no"?>
<!DOCTYPE svg PUBLIC "-//W3C//DTD SVG 20010904//EN"
              "http://www.w3.org/TR/2001/REC-SVG-20010904/DTD/svg10.dtd">

<svg xmlns="http://www.w3.org/2000/svg"
     width="1.9in" height="1.41in"
     viewBox="0 0 190 141">
  <path id="Selection"
        fill="red" stroke="red" stroke-width="8"
        d="M 36.00,41.00
           C 38.54,40.99 41.58,41.11 44.00,40.35
             52.53,37.68 55.44,29.04 59.31,22.00
             64.14,13.21 70.13,5.17 80.00,1.76
             85.16,-0.02 90.23,-0.67 94.95,2.70
             98.96,5.57 101.70,12.60 96.58,15.98
             94.05,17.65 88.95,17.01 87.92,13.77
             87.31,11.87 88.55,8.03 89.00,6.00
             73.05,5.75 69.11,29.34 64.00,41.00
             64.00,41.00 74.00,41.00 74.00,41.00
             73.21,50.64 68.90,46.17 64.22,49.02
             61.74,50.54 61.08,53.41 60.29,56.00
             54.41,75.50 46.87,109.17 35.36,125.00
             28.72,134.13 20.33,142.44 7.95,140.87
             -3.64,139.39 -1.25,123.29 7.95,125.47
             13.39,126.79 11.34,132.39 10.00,136.00
             21.23,134.80 25.76,126.74 29.31,117.00
             29.31,117.00 49.00,48.00 49.00,48.00
             49.00,48.00 35.00,48.00 35.00,48.00
             35.00,48.00 36.00,41.00 36.00,41.00 Z
           M 91.00,133.00
           C 86.58,131.45 85.68,128.11 83.86,124.00
             80.10,115.50 77.04,106.36 77.00,97.00
             76.88,72.06 84.35,57.04 103.00,40.17
             107.90,35.74 113.65,29.73 120.00,28.00
             118.14,34.33 113.44,37.28 109.09,42.00
             105.78,45.60 100.93,52.65 98.63,57.00
             92.50,68.56 84.26,92.99 85.09,106.00
             85.95,119.59 90.19,125.23 91.00,133.00 Z
           M 176.00,28.00
           C 176.00,28.00 178.00,28.00 178.00,28.00
             192.00,52.59 195.04,77.22 179.58,102.00
             175.47,108.58 169.85,115.50 164.00,120.58
             158.95,124.96 153.35,130.84 147.00,133.00
             147.00,133.00 146.00,132.00 146.00,132.00
             146.00,132.00 146.00,130.00 146.00,130.00
             150.72,126.43 155.82,121.66 159.48,117.00
             170.05,103.56 180.79,77.26 181.00,60.00
             181.21,41.58 179.39,44.52 175.00,29.00
             175.00,29.00 176.00,28.00 176.00,28.00 Z
           M 129.00,89.00
           C 126.28,95.08 120.03,104.82 114.00,107.83
             109.90,109.87 101.61,108.35 103.79,102.14
             105.83,96.37 111.99,101.51 115.13,99.99
             118.40,98.40 126.67,86.66 127.20,83.00
             127.78,78.91 124.24,69.14 120.87,66.74
             118.02,64.71 111.17,65.03 113.17,61.45
             114.11,59.77 117.27,59.08 119.00,58.65
             121.06,58.15 124.97,57.21 126.98,57.77
             132.49,59.30 134.00,68.29 136.00,73.00
             138.79,67.28 142.88,60.66 149.00,58.09
             154.18,55.92 159.18,58.95 157.67,64.87
             155.86,71.97 149.92,64.07 144.05,69.26
             136.05,76.34 137.35,81.02 139.63,90.00
             139.63,90.00 143.00,102.00 143.00,102.00
             143.00,102.00 154.00,95.00 154.00,95.00
             152.40,100.87 142.45,113.51 135.51,107.40
             132.76,104.99 130.56,93.24 129.00,89.00 Z" />
</svg>
