<?xml version="1.0" encoding="UTF-8" standalone="no"?>
<!DOCTYPE svg PUBLIC "-//W3C//DTD SVG 20010904//EN"
              "http://www.w3.org/TR/2001/REC-SVG-20010904/DTD/svg10.dtd">

<svg xmlns="http://www.w3.org/2000/svg"
     width="13.89in" height="13.89in"
     viewBox="0 0 1389 1389">
  <path id="Selection"
        fill="yellow" stroke="yellow" stroke-width="4"
        d="M 638.00,342.00
           C 633.73,346.26 627.82,347.81 622.00,348.91
             606.10,351.90 589.62,346.96 578.62,334.83
             562.46,317.03 563.11,288.61 579.44,271.17
             583.97,266.33 590.66,261.90 597.00,259.89
             610.84,255.49 625.42,256.07 638.00,263.95
             661.70,278.80 666.60,313.20 648.00,334.00
             648.00,334.00 663.40,352.00 663.40,352.00
             663.40,352.00 664.00,365.00 664.00,365.00
             664.00,365.00 664.00,390.00 664.00,390.00
             664.00,390.00 664.00,479.00 664.00,479.00
             664.00,479.00 652.00,479.00 652.00,479.00
             652.00,479.00 652.00,399.00 652.00,399.00
             652.00,399.00 652.00,372.00 652.00,372.00
             652.00,372.00 651.15,358.00 651.15,358.00
             651.15,358.00 638.00,342.00 638.00,342.00 Z
           M 613.00,280.46
           C 604.82,281.31 598.61,283.79 593.97,291.00
             584.12,306.30 594.97,326.42 613.00,326.42
             628.48,326.42 640.01,310.71 634.89,296.00
             631.62,286.59 622.64,281.02 613.00,280.46 Z
           M 721.00,479.00
           C 721.00,479.00 721.00,360.00 721.00,360.00
             720.98,347.58 717.73,352.59 710.68,344.70
             707.52,341.16 705.50,335.73 705.21,331.00
             704.44,318.68 714.79,308.18 727.00,308.18
             739.75,308.18 750.06,319.29 748.82,332.00
             748.35,336.90 746.18,342.17 742.67,345.67
             735.80,352.55 733.02,347.90 733.00,360.00
             733.00,360.00 733.00,479.00 733.00,479.00
             733.00,479.00 721.00,479.00 721.00,479.00 Z
           M 727.00,323.68
           C 716.83,325.51 720.37,336.55 727.00,336.55
             733.73,336.55 737.59,325.57 727.00,323.68 Z
           M 790.00,479.00
           C 790.00,479.00 790.00,433.00 790.00,433.00
             790.00,431.20 789.86,427.93 790.57,426.33
             791.95,423.21 804.47,416.73 808.00,414.72
             808.00,414.72 837.00,397.99 837.00,397.99
             839.35,396.61 846.72,392.73 847.90,390.61
             848.56,389.15 848.00,380.33 847.90,378.00
             848.02,367.22 850.94,359.58 859.01,352.10
             880.88,331.85 918.25,346.68 918.99,377.00
             919.13,382.87 918.78,387.48 916.53,393.00
             911.16,406.14 896.31,415.86 882.00,414.82
             875.78,414.37 869.29,412.63 864.00,409.29
             861.28,407.58 856.90,403.05 853.83,403.65
             851.91,404.03 841.38,410.38 839.00,411.80
             839.00,411.80 814.00,426.20 814.00,426.20
             811.30,427.81 805.30,430.93 803.60,433.21
             801.72,435.74 802.01,439.02 802.00,442.00
             802.00,442.00 802.00,479.00 802.00,479.00
             802.00,479.00 790.00,479.00 790.00,479.00 Z
           M 881.00,362.33
           C 874.50,363.92 869.67,367.31 867.65,374.00
             864.12,385.66 874.06,397.20 886.00,395.14
             906.91,391.54 903.07,360.37 881.00,362.33 Z
           M 582.00,479.00
           C 582.00,479.00 582.00,426.00 582.00,426.00
             581.97,413.20 578.54,418.44 571.34,409.96
             566.39,404.13 565.32,396.19 567.52,389.00
             574.74,365.33 611.47,371.46 609.91,397.00
             609.61,401.90 607.79,407.03 604.47,410.70
             600.62,414.96 596.73,415.50 595.02,418.27
             593.79,420.27 594.00,423.69 594.00,426.00
             594.00,426.00 594.00,479.00 594.00,479.00
             594.00,479.00 582.00,479.00 582.00,479.00 Z
           M 587.04,389.54
           C 577.57,393.21 582.51,403.14 588.99,402.36
             595.98,401.51 597.40,389.82 587.04,389.54 Z
           M 350.00,519.00
           C 345.72,520.13 342.47,520.88 338.00,520.99
             330.78,521.15 323.63,519.73 317.00,516.83
             278.53,500.00 282.19,441.26 323.00,430.16
             326.90,429.10 334.02,427.86 338.00,428.09
             353.02,428.95 367.20,436.25 375.45,449.00
             388.36,468.95 384.05,501.16 362.00,513.00
             362.00,513.00 373.31,538.00 373.31,538.00
             373.31,538.00 381.00,557.00 381.00,557.00
             381.00,557.00 504.00,557.00 504.00,557.00
             504.00,557.00 504.00,570.00 504.00,570.00
             504.00,570.00 380.00,570.00 380.00,570.00
             380.00,570.00 371.97,568.43 371.97,568.43
             371.97,568.43 364.58,553.00 364.58,553.00
             364.58,553.00 350.00,519.00 350.00,519.00 Z
           M 337.00,451.73
           C 324.18,452.21 314.13,460.81 313.38,474.00
             312.64,486.76 325.28,498.92 338.00,497.66
             358.35,495.65 366.92,470.04 350.83,456.93
             346.58,453.47 342.35,452.22 337.00,451.73 Z
           M 881.00,558.00
           C 881.00,558.00 946.00,558.00 946.00,558.00
             948.62,558.00 951.48,558.11 954.00,557.35
             954.00,557.35 977.00,545.26 977.00,545.26
             977.00,545.26 998.00,534.14 998.00,534.14
             1000.00,533.03 1004.82,530.58 1005.81,528.61
             1006.64,526.94 1005.04,518.93 1005.00,516.00
             1005.00,516.00 1005.00,511.00 1005.00,511.00
             1005.10,489.54 1020.92,471.26 1042.00,467.23
             1045.45,466.84 1050.41,466.96 1054.00,467.23
             1076.95,467.27 1096.73,487.07 1097.00,510.00
             1097.19,526.14 1093.39,539.10 1080.00,549.47
             1064.61,561.40 1042.48,562.42 1026.00,552.18
             1020.78,548.95 1016.66,545.63 1014.00,540.00
             1014.00,540.00 978.00,559.42 978.00,559.42
             978.00,559.42 958.00,569.87 958.00,569.87
             958.00,569.87 951.00,569.87 951.00,569.87
             951.00,569.87 881.00,569.87 881.00,569.87
             881.00,569.87 881.00,558.00 881.00,558.00 Z
           M 1047.00,490.33
           C 1035.79,493.02 1027.36,502.02 1028.09,514.00
             1028.93,527.63 1041.41,538.08 1055.00,535.53
             1073.28,532.11 1080.51,509.23 1066.82,496.33
             1061.09,490.93 1054.59,489.49 1047.00,490.33 Z
           M 540.00,495.13
           C 540.00,495.13 570.00,495.13 570.00,495.13
             570.00,495.13 625.00,495.13 625.00,495.13
             625.00,495.13 793.00,495.13 793.00,495.13
             793.00,495.13 827.00,495.13 827.00,495.13
             827.00,495.13 845.00,495.13 845.00,495.13
             854.62,497.01 862.09,504.81 864.70,514.00
             865.93,518.32 865.99,521.59 866.00,526.00
             866.00,526.00 866.00,768.00 866.00,768.00
             866.00,768.00 866.00,784.00 866.00,784.00
             866.00,784.00 866.00,803.00 866.00,803.00
             866.00,817.86 865.04,833.89 848.00,839.23
             843.11,840.76 839.04,840.99 834.00,841.00
             834.00,841.00 593.00,841.00 593.00,841.00
             593.00,841.00 560.00,841.00 560.00,841.00
             553.31,841.00 545.38,841.51 539.00,839.70
             525.81,835.95 520.02,826.09 520.00,813.00
             520.00,813.00 520.00,572.00 520.00,572.00
             520.00,572.00 520.00,533.00 520.00,533.00
             520.00,516.01 519.23,500.42 540.00,495.13 Z
           M 546.15,518.60
           C 542.29,521.29 543.01,523.62 543.00,528.00
             543.00,528.00 543.00,548.00 543.00,548.00
             543.00,548.00 543.00,634.00 543.00,634.00
             543.00,634.00 543.00,775.00 543.00,775.00
             543.00,775.00 543.00,808.00 543.00,808.00
             543.01,810.54 542.76,814.27 544.74,816.18
             546.94,818.29 552.11,818.00 555.00,818.00
             555.00,818.00 776.00,818.00 776.00,818.00
             776.00,818.00 821.00,818.00 821.00,818.00
             825.16,818.00 836.56,818.62 839.72,816.69
             843.48,814.39 842.99,808.82 843.00,805.00
             843.00,805.00 843.00,585.00 843.00,585.00
             843.00,585.00 843.00,539.00 843.00,539.00
             843.00,535.06 843.62,523.30 841.71,520.43
             839.76,517.50 835.10,518.01 832.00,518.00
             832.00,518.00 638.00,518.00 638.00,518.00
             638.00,518.00 577.00,518.00 577.00,518.00
             577.00,518.00 546.15,518.60 546.15,518.60 Z
           M 811.00,535.56
           C 829.87,535.07 829.07,561.45 811.00,559.89
             797.36,558.72 795.22,538.91 811.00,535.56 Z
           M 612.00,572.16
           C 612.00,572.16 665.00,572.16 665.00,572.16
             665.00,572.16 766.00,572.16 766.00,572.16
             781.42,572.02 787.98,577.14 788.00,593.00
             788.00,593.00 788.00,723.00 788.00,723.00
             788.00,723.00 788.00,738.00 788.00,738.00
             788.00,748.43 788.53,758.74 776.00,762.36
             773.43,763.11 770.65,763.00 768.00,763.00
             768.00,763.00 638.00,763.00 638.00,763.00
             638.00,763.00 623.00,763.00 623.00,763.00
             612.40,763.00 601.69,763.68 597.94,751.00
             596.95,747.65 597.01,744.45 597.00,741.00
             597.00,741.00 597.00,614.00 597.00,614.00
             597.00,614.00 597.00,595.00 597.00,595.00
             597.02,583.04 599.20,575.52 612.00,572.16 Z
           M 615.02,584.14
           C 609.42,586.76 609.08,589.32 609.00,595.00
             609.00,595.00 609.00,652.00 609.00,652.00
             609.00,652.00 609.00,727.00 609.00,727.00
             609.00,732.34 607.47,746.80 612.28,749.83
             614.49,751.22 618.42,751.00 621.00,751.00
             621.00,751.00 740.00,751.00 740.00,751.00
             740.00,751.00 766.00,751.00 766.00,751.00
             768.56,750.98 771.60,751.16 773.69,749.40
             776.38,747.13 775.99,743.18 776.00,740.00
             776.00,740.00 776.00,621.00 776.00,621.00
             776.00,621.00 776.00,595.00 776.00,595.00
             775.99,592.26 776.19,588.70 774.26,586.51
             771.74,583.66 766.48,584.01 763.00,584.14
             763.00,584.14 665.00,584.14 665.00,584.14
             665.00,584.14 615.02,584.14 615.02,584.14 Z
           M 381.00,640.00
           C 379.76,653.67 368.34,665.63 355.00,668.48
             351.86,669.15 347.29,669.03 344.00,669.00
             340.20,668.95 337.64,668.74 334.00,667.45
             320.02,662.52 310.78,649.78 310.10,635.00
             309.19,615.00 325.09,598.09 345.00,598.00
             362.47,597.92 378.14,607.79 381.00,626.00
             381.00,626.00 504.00,626.00 504.00,626.00
             504.00,626.00 504.00,640.00 504.00,640.00
             504.00,640.00 381.00,640.00 381.00,640.00 Z
           M 881.00,627.00
           C 881.00,627.00 984.00,627.00 984.00,627.00
             986.19,627.00 989.73,627.22 991.57,625.98
             994.48,624.01 994.45,618.27 999.39,612.00
             1005.75,603.92 1014.73,599.25 1025.00,599.01
             1030.85,598.88 1036.69,599.84 1042.00,602.40
             1059.48,610.83 1065.35,634.72 1055.52,651.00
             1049.25,661.40 1037.05,667.45 1025.00,666.96
             1015.56,666.58 1006.35,662.15 1000.21,655.00
             994.34,648.17 994.65,642.10 991.57,640.02
             989.73,638.78 986.19,639.00 984.00,639.00
             984.00,639.00 881.00,639.00 881.00,639.00
             881.00,639.00 881.00,627.00 881.00,627.00 Z
           M 343.00,617.34
           C 319.92,623.56 329.52,654.18 350.00,649.61
             364.06,646.47 366.80,628.99 355.96,620.42
             351.91,617.21 347.94,616.81 343.00,617.34 Z
           M 1025.00,618.37
           C 1019.68,619.56 1015.21,621.63 1013.01,627.00
             1008.89,637.04 1016.79,649.09 1028.00,647.63
             1045.95,645.30 1045.35,617.75 1025.00,618.37 Z
           M 504.00,709.00
           C 504.00,709.00 460.00,709.00 460.00,709.00
             457.61,709.00 454.31,708.79 452.21,710.02
             449.07,711.85 448.50,715.66 443.91,719.21
             438.66,723.27 431.39,724.70 425.00,723.10
             401.37,717.19 403.67,682.85 428.00,680.19
             434.10,679.52 441.40,682.06 445.79,686.33
             452.69,693.03 447.63,695.98 460.00,696.00
             460.00,696.00 504.00,696.00 504.00,696.00
             504.00,696.00 504.00,709.00 504.00,709.00 Z
           M 881.00,696.00
           C 881.00,696.00 954.00,696.00 954.00,696.00
             956.34,696.00 959.71,696.21 961.74,694.98
             964.60,693.25 965.25,689.30 970.04,685.39
             975.31,681.09 983.48,680.02 990.00,681.53
             1005.74,685.16 1010.39,705.07 1000.47,716.91
             995.67,722.64 989.20,724.28 982.00,723.96
             976.26,723.71 971.15,721.31 967.39,716.91
             964.78,713.85 964.01,710.55 961.61,709.02
             959.66,707.78 956.27,708.00 954.00,708.00
             954.00,708.00 881.00,708.00 881.00,708.00
             881.00,708.00 881.00,696.00 881.00,696.00 Z
           M 430.01,695.57
           C 419.44,697.87 424.03,709.20 430.99,708.36
             437.39,707.58 439.72,697.17 430.01,695.57 Z
           M 982.04,696.62
           C 972.74,701.97 980.11,710.42 985.96,708.38
             992.76,706.02 991.73,695.27 982.04,696.62 Z
           M 413.00,779.00
           C 408.31,808.87 365.38,815.04 350.35,788.00
             337.93,765.67 354.17,737.21 380.00,737.18
             389.57,737.17 400.00,741.79 406.18,749.09
             412.61,756.69 411.61,761.68 415.27,763.98
             417.24,765.21 420.72,765.00 423.00,765.00
             423.00,765.00 504.00,765.00 504.00,765.00
             504.00,765.00 504.00,779.00 504.00,779.00
             504.00,779.00 413.00,779.00 413.00,779.00 Z
           M 377.00,757.34
           C 357.49,762.87 365.15,788.80 383.00,785.67
             394.38,783.68 398.33,770.18 391.58,762.10
             387.53,757.25 382.87,756.67 377.00,757.34 Z
           M 881.00,766.00
           C 881.00,766.00 965.00,766.00 965.00,766.00
             974.11,766.02 972.36,765.79 981.34,779.00
             986.68,786.84 997.14,801.10 1001.00,809.00
             1009.06,805.79 1017.19,803.20 1026.00,804.29
             1036.56,805.58 1045.95,809.00 1053.91,816.30
             1072.93,833.73 1072.96,865.86 1054.91,883.91
             1047.18,891.64 1036.77,895.79 1026.00,896.83
             999.57,899.39 976.30,878.50 976.00,852.00
             975.91,843.29 977.12,835.71 981.44,828.00
             981.44,828.00 988.90,817.00 988.90,817.00
             990.07,813.45 984.65,806.98 982.67,804.00
             982.67,804.00 971.00,787.00 971.00,787.00
             969.50,784.76 966.90,780.35 964.68,779.02
             962.61,777.78 959.37,778.00 957.00,778.00
             957.00,778.00 881.00,778.00 881.00,778.00
             881.00,778.00 881.00,766.00 881.00,766.00 Z
           M 1023.00,827.72
           C 1015.78,827.90 1010.27,829.61 1005.21,835.09
             991.89,849.52 1002.40,873.52 1022.00,873.66
             1037.95,873.77 1049.54,856.74 1043.52,842.00
             1039.93,833.21 1032.12,828.58 1023.00,827.72 Z
           M 582.00,856.00
           C 582.00,856.00 594.00,856.00 594.00,856.00
             594.00,856.00 594.00,907.00 594.00,907.00
             594.00,908.88 594.12,912.11 593.40,913.79
             591.92,917.24 580.69,922.67 577.00,924.70
             577.00,924.70 540.00,945.30 540.00,945.30
             533.94,948.63 525.31,954.20 519.00,956.00
             522.47,964.16 522.10,968.41 522.00,977.00
             521.92,983.09 520.61,988.54 517.88,994.00
             500.03,1029.66 449.88,1027.24 434.32,994.00
             430.64,986.13 429.90,979.53 430.00,971.00
             430.30,945.58 453.08,926.06 478.00,927.04
             491.08,927.55 506.60,934.11 513.00,946.00
             513.00,946.00 565.00,916.58 565.00,916.58
             568.70,914.49 579.88,909.30 581.40,905.79
             582.12,904.12 582.00,900.87 582.00,899.00
             582.00,899.00 582.00,856.00 582.00,856.00 Z
           M 652.00,856.00
           C 652.00,856.00 664.00,856.00 664.00,856.00
             664.00,856.00 664.00,963.00 664.00,963.00
             664.00,965.18 663.78,968.73 665.02,970.57
             666.56,972.85 675.73,975.21 679.00,976.79
             684.45,979.41 689.53,983.29 693.33,988.01
             711.21,1010.19 706.24,1043.90 681.00,1058.26
             674.42,1062.00 668.60,1063.91 661.00,1064.00
             647.17,1064.16 636.82,1062.24 626.09,1052.56
             620.26,1047.31 616.09,1040.41 613.67,1033.00
             604.31,1004.32 622.03,976.23 652.00,972.00
             652.00,972.00 652.00,856.00 652.00,856.00 Z
           M 721.00,856.00
           C 721.00,856.00 733.00,856.00 733.00,856.00
             733.00,856.00 733.00,938.00 733.00,938.00
             748.46,940.95 753.24,960.09 744.36,971.96
             740.15,977.60 733.87,979.97 727.00,979.97
             700.33,979.97 698.16,942.36 721.00,938.00
             721.00,938.00 721.00,856.00 721.00,856.00 Z
           M 790.00,856.00
           C 790.00,856.00 802.00,856.00 802.00,856.00
             802.00,856.00 802.00,943.00 802.00,943.00
             802.02,954.16 805.98,954.83 814.00,961.95
             814.00,961.95 835.00,980.28 835.00,980.28
             837.50,982.45 845.21,989.93 848.00,990.43
             850.31,990.84 854.56,988.02 857.00,987.07
             862.66,984.87 865.12,984.99 871.00,985.00
             886.41,985.02 900.10,994.39 903.48,1010.00
             904.13,1012.99 904.03,1016.90 904.00,1020.00
             903.82,1034.67 893.64,1048.31 879.00,1051.48
             875.93,1052.15 872.17,1052.01 869.00,1052.00
             850.24,1051.91 837.78,1038.25 836.32,1020.00
             835.93,1015.01 839.96,1004.29 838.22,1001.28
             837.03,999.24 829.24,992.82 827.00,990.85
             827.00,990.85 802.00,968.95 802.00,968.95
             793.98,961.83 790.02,961.16 790.00,950.00
             790.00,950.00 790.00,856.00 790.00,856.00 Z
           M 476.00,950.46
           C 467.82,951.31 461.61,953.79 456.97,961.00
             447.12,976.30 457.97,996.42 476.00,996.42
             491.93,996.42 503.60,979.89 497.52,965.00
             493.89,956.13 485.31,951.00 476.00,950.46 Z
           M 725.04,952.61
           C 715.74,957.99 723.12,966.41 728.96,964.38
             735.48,962.11 735.28,950.95 725.04,952.61 Z
           M 654.00,995.21
           C 646.08,997.22 639.90,1001.32 636.53,1009.00
             630.22,1023.40 640.35,1039.83 656.00,1040.90
             680.20,1042.57 690.47,1009.61 668.00,997.82
             665.15,996.33 662.22,995.32 659.00,995.21
             657.23,994.97 655.75,995.14 654.00,995.21 Z
           M 867.00,1004.39
           C 849.78,1009.95 854.11,1031.61 869.00,1032.89
             885.62,1034.32 890.95,1012.52 877.00,1005.45
             873.64,1003.75 870.59,1003.91 867.00,1004.39 Z" />
</svg>
