<?xml version="1.0" encoding="UTF-8" standalone="no"?>
<!DOCTYPE svg PUBLIC "-//W3C//DTD SVG 20010904//EN"
              "http://www.w3.org/TR/2001/REC-SVG-20010904/DTD/svg10.dtd">

<svg xmlns="http://www.w3.org/2000/svg"
     width="26.84in" height="27.17in"
     viewBox="0 0 2684 2717">
  <path id="Selection"
        fill="red" stroke="none" stroke-width="1"
        d="M 0.00,994.00
           C 0.00,994.00 198.00,864.66 198.00,864.66
             198.00,864.66 608.00,596.66 608.00,596.66
             608.00,596.66 943.00,377.66 943.00,377.66
             943.00,377.66 1069.00,295.31 1069.00,295.31
             1069.00,295.31 1120.00,261.95 1120.00,261.95
             1120.00,261.95 1243.00,181.34 1243.00,181.34
             1243.00,181.34 1410.00,72.33 1410.00,72.33
             1410.00,72.33 1490.00,20.00 1490.00,20.00
             1490.00,20.00 1511.00,6.33 1511.00,6.33
             1511.00,6.33 1522.00,0.50 1522.00,0.50
             1522.00,0.50 1531.00,4.58 1531.00,4.58
             1531.00,4.58 1547.00,14.32 1547.00,14.32
             1547.00,14.32 1605.00,49.80 1605.00,49.80
             1605.00,49.80 1702.00,109.19 1702.00,109.19
             1702.00,109.19 1835.00,190.58 1835.00,190.58
             1835.00,190.58 1950.00,260.81 1950.00,260.81
             1950.00,260.81 2254.00,446.81 2254.00,446.81
             2254.00,446.81 2558.00,632.81 2558.00,632.81
             2558.00,632.81 2684.00,710.00 2684.00,710.00
             2684.00,710.00 2684.00,712.00 2684.00,712.00
             2684.00,712.00 2634.00,744.33 2634.00,744.33
             2634.00,744.33 2557.00,794.66 2557.00,794.66
             2557.00,794.66 2300.00,962.66 2300.00,962.66
             2300.00,962.66 1546.00,1455.34 1546.00,1455.34
             1546.00,1455.34 1350.00,1583.66 1350.00,1583.66
             1350.00,1583.66 1259.00,1643.00 1259.00,1643.00
             1259.00,1643.00 1187.00,1690.00 1187.00,1690.00
             1187.00,1690.00 1169.00,1701.95 1169.00,1701.95
             1166.31,1703.63 1163.34,1705.82 1160.00,1705.05
             1157.88,1704.57 1151.25,1700.35 1149.00,1699.00
             1149.00,1699.00 1127.00,1685.42 1127.00,1685.42
             1127.00,1685.42 1059.00,1643.81 1059.00,1643.81
             1059.00,1643.81 821.00,1498.20 821.00,1498.20
             821.00,1498.20 585.00,1353.81 585.00,1353.81
             585.00,1353.81 216.00,1128.19 216.00,1128.19
             216.00,1128.19 0.00,996.00 0.00,996.00
             0.00,996.00 0.00,994.00 0.00,994.00 Z
           M 1532.00,333.28
           C 1517.58,335.40 1507.42,339.05 1497.09,350.01
             1477.15,371.17 1480.06,405.26 1501.17,424.38
             1501.17,424.38 1548.00,454.42 1548.00,454.42
             1548.00,454.42 1634.00,507.81 1634.00,507.81
             1634.00,507.81 1751.00,580.58 1751.00,580.58
             1751.00,580.58 1893.00,668.68 1893.00,668.68
             1893.00,668.68 1993.00,730.81 1993.00,730.81
             2008.94,740.68 2027.83,755.22 2047.00,755.96
             2053.26,756.20 2060.16,754.77 2066.00,752.58
             2102.85,738.72 2112.39,693.73 2084.71,666.29
             2077.99,659.62 2050.77,643.66 2041.00,637.58
             2041.00,637.58 1954.00,583.58 1954.00,583.58
             1954.00,583.58 1677.00,411.58 1677.00,411.58
             1677.00,411.58 1584.00,353.81 1584.00,353.81
             1567.95,343.86 1552.04,331.44 1532.00,333.28 Z
           M 1123.00,500.29
           C 1094.82,504.41 1075.76,521.60 1074.09,551.00
             1073.27,565.54 1081.22,582.23 1092.01,591.70
             1096.76,595.86 1108.19,602.81 1114.00,606.42
             1114.00,606.42 1231.00,680.31 1231.00,680.31
             1231.00,680.31 1378.00,773.05 1378.00,773.05
             1378.00,773.05 1637.00,936.68 1637.00,936.68
             1637.00,936.68 1749.00,1007.42 1749.00,1007.42
             1766.29,1018.19 1786.37,1034.25 1807.00,1035.82
             1812.28,1036.22 1822.02,1033.93 1827.00,1032.00
             1863.31,1017.88 1872.56,973.20 1845.00,946.01
             1838.16,939.28 1830.03,935.04 1822.00,929.95
             1822.00,929.95 1785.00,906.58 1785.00,906.58
             1785.00,906.58 1670.00,833.95 1670.00,833.95
             1670.00,833.95 1442.00,689.95 1442.00,689.95
             1442.00,689.95 1310.00,606.58 1310.00,606.58
             1310.00,606.58 1186.00,528.31 1186.00,528.31
             1186.00,528.31 1167.00,516.31 1167.00,516.31
             1153.33,507.52 1140.09,498.85 1123.00,500.29 Z
           M 781.00,715.28
           C 767.15,717.32 757.33,720.90 747.17,731.17
             729.67,748.88 728.44,778.18 742.93,798.00
             751.25,809.40 764.27,816.08 776.00,823.42
             776.00,823.42 828.00,856.32 828.00,856.32
             828.00,856.32 1165.00,1069.05 1165.00,1069.05
             1165.00,1069.05 1326.00,1170.81 1326.00,1170.81
             1326.00,1170.81 1421.00,1230.81 1421.00,1230.81
             1435.19,1239.60 1443.08,1246.44 1460.00,1249.80
             1463.18,1250.43 1465.72,1251.06 1469.00,1250.82
             1494.97,1248.93 1516.60,1230.42 1519.07,1204.00
             1519.35,1201.10 1519.90,1198.95 1519.68,1196.00
             1518.59,1181.77 1512.75,1168.75 1502.00,1159.18
             1496.50,1154.29 1481.92,1145.75 1475.00,1141.31
             1475.00,1141.31 1364.00,1071.19 1364.00,1071.19
             1364.00,1071.19 1242.00,994.05 1242.00,994.05
             1242.00,994.05 944.00,805.95 944.00,805.95
             944.00,805.95 840.00,740.31 840.00,740.31
             822.57,729.10 802.82,713.32 781.00,715.28 Z
           M 0.00,1331.00
           C 0.00,1331.00 121.00,1252.00 121.00,1252.00
             121.00,1252.00 155.00,1229.69 155.00,1229.69
             157.70,1227.95 166.33,1222.03 169.00,1221.92
             172.11,1221.80 182.82,1229.06 186.00,1231.05
             186.00,1231.05 226.00,1255.58 226.00,1255.58
             226.00,1255.58 377.00,1347.95 377.00,1347.95
             377.00,1347.95 494.00,1419.42 494.00,1419.42
             494.00,1419.42 932.00,1687.42 932.00,1687.42
             932.00,1687.42 1100.00,1790.20 1100.00,1790.20
             1100.00,1790.20 1145.00,1817.80 1145.00,1817.80
             1148.30,1819.78 1160.08,1827.69 1163.00,1827.80
             1165.67,1827.90 1168.79,1825.44 1171.00,1824.05
             1171.00,1824.05 1187.00,1813.67 1187.00,1813.67
             1187.00,1813.67 1247.00,1774.34 1247.00,1774.34
             1247.00,1774.34 1475.00,1625.33 1475.00,1625.33
             1475.00,1625.33 1588.00,1551.66 1588.00,1551.66
             1588.00,1551.66 1819.00,1400.66 1819.00,1400.66
             1819.00,1400.66 2102.00,1215.66 2102.00,1215.66
             2102.00,1215.66 2228.00,1133.31 2228.00,1133.31
             2228.00,1133.31 2298.00,1087.34 2298.00,1087.34
             2298.00,1087.34 2434.00,998.66 2434.00,998.66
             2434.00,998.66 2491.00,961.33 2491.00,961.33
             2491.00,961.33 2508.00,950.19 2508.00,950.19
             2510.05,948.92 2513.69,946.34 2516.00,946.09
             2519.41,945.72 2525.98,950.37 2529.00,952.20
             2529.00,952.20 2561.00,971.81 2561.00,971.81
             2561.00,971.81 2684.00,1047.00 2684.00,1047.00
             2684.00,1047.00 2684.00,1049.00 2684.00,1049.00
             2684.00,1049.00 2645.00,1074.31 2645.00,1074.31
             2645.00,1074.31 2545.00,1139.66 2545.00,1139.66
             2545.00,1139.66 2288.00,1307.66 2288.00,1307.66
             2288.00,1307.66 1800.00,1626.66 1800.00,1626.66
             1800.00,1626.66 1621.00,1743.66 1621.00,1743.66
             1621.00,1743.66 1549.00,1790.67 1549.00,1790.67
             1549.00,1790.67 1381.00,1900.34 1381.00,1900.34
             1381.00,1900.34 1303.00,1951.34 1303.00,1951.34
             1303.00,1951.34 1257.00,1981.42 1257.00,1981.42
             1257.00,1981.42 1187.00,2027.33 1187.00,2027.33
             1187.00,2027.33 1169.00,2039.00 1169.00,2039.00
             1166.25,2040.79 1163.47,2042.96 1160.00,2042.20
             1157.46,2041.64 1151.46,2037.59 1149.00,2036.05
             1149.00,2036.05 1129.00,2023.81 1129.00,2023.81
             1129.00,2023.81 1057.00,1979.80 1057.00,1979.80
             1057.00,1979.80 977.00,1930.81 977.00,1930.81
             977.00,1930.81 807.00,1826.81 807.00,1826.81
             807.00,1826.81 266.00,1495.81 266.00,1495.81
             266.00,1495.81 96.00,1391.81 96.00,1391.81
             96.00,1391.81 30.00,1351.42 30.00,1351.42
             30.00,1351.42 0.00,1333.00 0.00,1333.00
             0.00,1333.00 0.00,1331.00 0.00,1331.00 Z
           M 965.00,1246.45
           C 952.58,1247.49 942.85,1250.19 933.00,1258.33
             910.74,1276.72 907.86,1309.86 926.32,1332.00
             935.18,1342.62 958.49,1355.22 971.00,1363.34
             971.00,1363.34 1075.00,1429.00 1075.00,1429.00
             1075.00,1429.00 1092.00,1439.69 1092.00,1439.69
             1106.42,1448.96 1118.98,1457.72 1137.00,1456.96
             1171.54,1455.51 1194.91,1420.23 1183.66,1388.00
             1181.60,1382.12 1179.02,1376.79 1174.98,1372.00
             1165.20,1360.40 1141.62,1347.59 1128.00,1338.95
             1128.00,1338.95 1031.00,1277.66 1031.00,1277.66
             1021.78,1271.67 992.49,1252.58 984.00,1249.55
             978.02,1247.41 971.31,1246.69 965.00,1246.45 Z
           M 1164.00,2167.00
           C 1169.35,2161.23 1189.24,2149.50 1197.00,2144.33
             1197.00,2144.33 1270.00,2096.66 1270.00,2096.66
             1270.00,2096.66 1500.00,1946.31 1500.00,1946.31
             1500.00,1946.31 1645.00,1851.34 1645.00,1851.34
             1645.00,1851.34 2012.00,1611.66 2012.00,1611.66
             2012.00,1611.66 2193.00,1493.31 2193.00,1493.31
             2193.00,1493.31 2312.00,1415.34 2312.00,1415.34
             2312.00,1415.34 2435.00,1335.00 2435.00,1335.00
             2435.00,1335.00 2496.00,1295.19 2496.00,1295.19
             2500.53,1292.38 2513.25,1282.17 2518.00,1283.29
             2520.15,1283.80 2530.42,1290.23 2533.00,1291.81
             2533.00,1291.81 2565.00,1311.40 2565.00,1311.40
             2565.00,1311.40 2653.00,1365.20 2653.00,1365.20
             2653.00,1365.20 2684.00,1384.00 2684.00,1384.00
             2684.00,1384.00 2684.00,1386.00 2684.00,1386.00
             2684.00,1386.00 2665.00,1398.33 2665.00,1398.33
             2665.00,1398.33 2638.00,1416.00 2638.00,1416.00
             2638.00,1416.00 2558.00,1468.31 2558.00,1468.31
             2558.00,1468.31 2276.00,1652.66 2276.00,1652.66
             2276.00,1652.66 1788.00,1971.66 1788.00,1971.66
             1788.00,1971.66 1635.00,2071.66 1635.00,2071.66
             1635.00,2071.66 1568.00,2115.33 1568.00,2115.33
             1568.00,2115.33 1447.00,2194.34 1447.00,2194.34
             1447.00,2194.34 1269.00,2310.69 1269.00,2310.69
             1269.00,2310.69 1191.00,2361.69 1191.00,2361.69
             1191.00,2361.69 1171.00,2374.95 1171.00,2374.95
             1171.00,2374.95 1161.00,2379.39 1161.00,2379.39
             1161.00,2379.39 1152.00,2375.05 1152.00,2375.05
             1152.00,2375.05 1135.00,2364.68 1135.00,2364.68
             1135.00,2364.68 1074.00,2327.40 1074.00,2327.40
             1074.00,2327.40 845.00,2187.20 845.00,2187.20
             845.00,2187.20 305.00,1856.81 305.00,1856.81
             305.00,1856.81 104.00,1733.81 104.00,1733.81
             104.00,1733.81 37.00,1692.81 37.00,1692.81
             37.00,1692.81 0.00,1670.00 0.00,1670.00
             0.00,1670.00 0.00,1668.00 0.00,1668.00
             0.00,1668.00 41.00,1641.34 41.00,1641.34
             41.00,1641.34 123.00,1587.95 123.00,1587.95
             123.00,1587.95 155.00,1567.00 155.00,1567.00
             155.00,1567.00 169.00,1559.00 169.00,1559.00
             169.00,1559.00 190.00,1570.60 190.00,1570.60
             190.00,1570.60 243.00,1603.05 243.00,1603.05
             243.00,1603.05 435.00,1720.58 435.00,1720.58
             435.00,1720.58 532.00,1779.81 532.00,1779.81
             532.00,1779.81 771.00,1926.19 771.00,1926.19
             771.00,1926.19 940.00,2029.58 940.00,2029.58
             940.00,2029.58 1092.00,2122.58 1092.00,2122.58
             1092.00,2122.58 1164.00,2167.00 1164.00,2167.00 Z
           M 1164.00,2504.00
           C 1168.32,2499.34 1186.41,2488.39 1193.00,2484.00
             1193.00,2484.00 1258.00,2441.66 1258.00,2441.66
             1258.00,2441.66 1463.00,2307.66 1463.00,2307.66
             1463.00,2307.66 1867.00,2043.34 1867.00,2043.34
             1867.00,2043.34 2131.00,1871.00 2131.00,1871.00
             2131.00,1871.00 2304.00,1757.69 2304.00,1757.69
             2304.00,1757.69 2396.00,1697.67 2396.00,1697.67
             2396.00,1697.67 2477.00,1644.67 2477.00,1644.67
             2477.00,1644.67 2502.00,1628.33 2502.00,1628.33
             2504.97,1626.35 2511.84,1621.42 2515.00,1620.70
             2519.68,1619.63 2525.19,1624.21 2529.00,1626.58
             2529.00,1626.58 2560.00,1645.58 2560.00,1645.58
             2560.00,1645.58 2639.00,1693.81 2639.00,1693.81
             2639.00,1693.81 2684.00,1721.00 2684.00,1721.00
             2684.00,1721.00 2684.00,1723.00 2684.00,1723.00
             2684.00,1723.00 2489.00,1850.34 2489.00,1850.34
             2489.00,1850.34 2053.00,2135.34 2053.00,2135.34
             2053.00,2135.34 1718.00,2354.34 1718.00,2354.34
             1718.00,2354.34 1567.00,2453.05 1567.00,2453.05
             1567.00,2453.05 1444.00,2533.66 1444.00,2533.66
             1444.00,2533.66 1275.00,2644.00 1275.00,2644.00
             1275.00,2644.00 1195.00,2696.33 1195.00,2696.33
             1195.00,2696.33 1173.00,2710.67 1173.00,2710.67
             1170.25,2712.50 1165.22,2716.37 1162.00,2716.51
             1158.31,2716.68 1150.36,2711.25 1147.00,2709.19
             1147.00,2709.19 1113.00,2688.40 1113.00,2688.40
             1113.00,2688.40 982.00,2608.20 982.00,2608.20
             982.00,2608.20 818.00,2507.81 818.00,2507.81
             818.00,2507.81 478.00,2299.81 478.00,2299.81
             478.00,2299.81 259.00,2165.81 259.00,2165.81
             259.00,2165.81 127.00,2085.05 127.00,2085.05
             127.00,2085.05 36.00,2029.40 36.00,2029.40
             36.00,2029.40 12.00,2014.80 12.00,2014.80
             7.44,2012.03 2.54,2009.81 0.00,2005.00
             0.00,2005.00 26.00,1988.33 26.00,1988.33
             26.00,1988.33 54.00,1970.00 54.00,1970.00
             54.00,1970.00 121.00,1926.33 121.00,1926.33
             121.00,1926.33 154.00,1904.67 154.00,1904.67
             157.10,1902.61 165.63,1896.61 169.00,1896.50
             172.84,1896.37 185.04,1904.83 189.00,1907.20
             189.00,1907.20 241.00,1939.00 241.00,1939.00
             241.00,1939.00 336.00,1997.19 336.00,1997.19
             336.00,1997.19 437.00,2058.95 437.00,2058.95
             437.00,2058.95 602.00,2159.81 602.00,2159.81
             602.00,2159.81 931.00,2361.19 931.00,2361.19
             931.00,2361.19 1083.00,2454.19 1083.00,2454.19
             1083.00,2454.19 1164.00,2504.00 1164.00,2504.00 Z" />
</svg>
